<svg width="2767" height="692" viewBox="0 0 2767 692" fill="none" xmlns="http://www.w3.org/2000/svg">
<mask id="mask0_1612_68" style="mask-type:luminance" maskUnits="userSpaceOnUse" x="1961" y="83" width="778" height="540">
<path d="M2736.82 507.66L2738.34 529.098C2738.27 531.386 2738.26 533.67 2738.12 535.95C2737 553.764 2735.36 571.495 2732.97 589.091C2732.59 591.835 2731.98 594.529 2731.42 597.563C2729.92 596.542 2728.79 595.799 2727.75 595.011C2721.41 590.475 2715.06 585.979 2708.75 581.375C2696.42 572.437 2683.15 565.343 2669.27 560.273C2653.35 554.415 2635.41 544.94 2619.01 541.608C2609.75 540.628 2614.03 541.146 2592.97 540.44C2580.54 539.956 2568.1 539.909 2555.68 539.86C2550.29 539.699 2544.91 539.986 2539.58 540.719C2527.88 542.654 2516.19 544.852 2504.6 547.466C2485.54 551.767 2466.49 556.308 2447.46 561.09C2429.34 565.622 2411.29 570.453 2393.26 575.295C2384.02 577.804 2374.78 580.392 2365.72 583.588C2350.25 589.051 2334.93 595.083 2319.51 600.766C2307.56 605.374 2295.31 608.99 2282.86 611.586C2271.67 613.765 2260.42 615.696 2249.13 617.379C2231.62 620.125 2213.97 621.753 2196.26 622.255C2188.85 622.551 2181.43 622.376 2174.03 621.731C2166.17 620.816 2158.36 619.408 2150.62 617.511C2125.66 611.654 2101.79 602.146 2079.48 587.69C2075.82 585.297 2042.76 594.055 2039.43 591.772C2039.32 590.899 2039.38 587.242 2034.7 559.751C2031.97 543.736 2033.72 549.75 2030.01 531.227C2023.58 504.681 2017.37 483.266 2018.27 458.168L2045.98 454.482C2046.11 435.138 2063.03 310.317 2066.76 286.383C2067.53 281.396 2002.86 283.17 2000.66 283.145C1997.79 260.57 2022.69 152.522 2022.52 135.537C2022.46 129.543 2018.1 134.483 1964.63 160.857C1963.92 89.4147 1952.85 79.7541 1977.09 85.0725C1983.67 87.0453 2046.76 96.7386 2053.07 98.4659C2058.99 100.1 2065.01 101.847 2071.06 102.825C2079.7 104.224 2088.43 104.904 2097.11 106.022C2115.88 108.416 2134.67 110.03 2153.48 111.338C2163.49 111.985 2173.49 112.803 2183.5 113.476C2193.8 114.174 2204.09 114.828 2214.38 115.438C2223.72 116.011 2233.11 116.593 2242.48 117.059C2252.78 117.567 2263.07 118.234 2273.37 118.347C2285.52 118.479 2297.67 118.032 2309.82 117.941C2319.55 117.88 2329.29 117.95 2339.04 118.073C2350.97 118.133 2362.91 118.293 2374.87 118.554C2385.44 118.723 2396.02 118.931 2406.59 119.178C2416.61 119.385 2426.63 119.683 2436.66 120.073C2445.56 120.371 2454.47 120.63 2463.38 121.047C2474.88 121.594 2486.38 122.14 2497.87 123.004C2506.05 123.602 2514.22 124.042 2522.26 125.705C2537.17 128.807 2551.98 132.629 2566.79 136.397C2589.76 142.243 2612.67 148.529 2635.85 153.239C2667.31 159.636 2663.65 162.185 2695.45 160.02L2700.51 159.679C2699.86 161.109 2699.52 162.03 2699.06 162.905C2696 168.997 2693.06 175.109 2690.01 181.174C2686.08 188.956 2682.72 197.106 2679.98 205.54C2674.81 221.116 2671.98 237.613 2671.61 254.357C2671.33 269.937 2673.61 285.212 2677.2 300.295C2681.72 318.957 2687.84 337.112 2695.45 354.501C2704.61 375.756 2711.32 397.94 2716.72 420.635C2720.38 435.936 2724.03 451.238 2727.67 466.542C2730.28 477.576 2732.87 488.607 2735.42 499.637C2736.01 502.29 2736.35 504.986 2736.82 507.66Z" fill="white"/>
</mask>
<g mask="url(#mask0_1612_68)">
<path d="M2546.74 51.2815L2289.39 68.5919L2032.05 85.9023L2073.52 670.45L2330.86 653.14L2588.21 635.829L2845.56 618.519L2804.09 33.971L2546.74 51.2815Z" fill="#BE2025"/>
<path d="M2742.46 27.0431L1955.86 79.9531L1998.12 675.522L2784.71 622.612L2742.46 27.0431Z" fill="#FF0000"/>
<path d="M2270.5 58.7893L1955.86 79.9531L1998.12 675.522L2312.75 654.358L2270.5 58.7893Z" fill="#006600"/>
<path fill-rule="evenodd" clip-rule="evenodd" d="M2400.76 442.051C2361.05 443.403 2170.3 326.821 2167.61 306.412L2176.29 286.743C2196.41 315.258 2390.96 428.047 2408.88 422.315L2400.76 442.038" fill="#FFFF00"/>
<path d="M2400.76 442.051C2361.05 443.403 2170.3 326.821 2167.61 306.412L2176.29 286.743C2196.41 315.258 2390.96 428.047 2408.88 422.315L2400.76 442.038" stroke="black" stroke-width="0.57" stroke-linecap="round" stroke-linejoin="round"/>
<path fill-rule="evenodd" clip-rule="evenodd" d="M2173.96 284.3C2171.18 295.403 2224.69 327.743 2288.99 365.957C2353.3 404.17 2408 426.782 2411.64 422.763C2412.21 421.503 2412.71 420.209 2413.16 418.886C2412.51 420.249 2410.75 420.711 2407.9 419.992C2390.95 415.681 2346.17 396.058 2290.06 362.875C2233.96 329.693 2185.03 298.813 2176.76 284.877C2176.1 283.597 2175.73 282.157 2175.68 280.687L2175.5 280.699L2174.18 283.863L2173.99 284.351L2173.96 284.3ZM2401.69 442.583C2401.12 444.007 2399.87 444.144 2397.47 444.002C2382.52 443.146 2335.81 421.343 2280.06 388.758C2215.18 350.886 2161.34 315.941 2166.18 305.545L2167.47 302.41L2167.77 302.495C2163.99 319.815 2274.74 381.447 2281.28 385.402C2345.64 424.377 2399.03 446.115 2403.13 439.239L2401.69 442.609L2401.69 442.583Z" fill="#FFFF00" stroke="black" stroke-width="0.57" stroke-linecap="round" stroke-linejoin="round"/>
<path fill-rule="evenodd" clip-rule="evenodd" d="M2288.56 310.749C2328.17 307.728 2376.68 298.645 2403.92 284.01L2397.07 273.226C2381.17 284.854 2332.47 294.98 2287.34 299.085C2233.89 302.113 2195.79 299 2175.88 285.886L2171 298.186C2206.88 312.534 2242.74 313.686 2288.5 310.779" fill="#FFFF00"/>
<path d="M2288.56 310.749C2328.17 307.728 2376.68 298.645 2403.92 284.01L2397.07 273.226C2381.17 284.854 2332.47 294.98 2287.34 299.085C2233.89 302.113 2195.79 299 2175.88 285.886L2171 298.186C2206.88 312.534 2242.74 313.686 2288.5 310.779" stroke="black" stroke-width="0.57" stroke-linecap="round" stroke-linejoin="round"/>
<path fill-rule="evenodd" clip-rule="evenodd" d="M2405.62 284.147C2404.78 285.971 2386.93 294.392 2360.26 301.518C2336.68 307.156 2312.72 310.757 2288.58 312.292C2265.49 313.965 2242.29 313.858 2219.15 311.973C2190.4 308.826 2175.24 302.784 2169.66 300.665C2170.09 299.461 2170.37 298.611 2170.79 297.487C2186.58 303.331 2202.89 307.063 2219.37 308.606C2242.33 310.498 2265.34 310.621 2288.25 308.975C2312.22 307.377 2336.01 303.747 2359.43 298.116C2386.82 291.165 2401.49 283.619 2403.39 280.442L2405.63 284.146L2405.62 284.147ZM2399.49 273.155C2396.68 276.103 2382.13 283.14 2356.12 289.693C2333.69 294.907 2310.92 298.269 2287.99 299.754C2265.88 301.427 2243.67 301.298 2221.51 299.368C2194.47 297.228 2179.71 290.988 2174.42 289.245C2174.86 288.212 2175.31 287.179 2175.78 286.144C2179.94 288.161 2194.13 293.581 2221.57 296.117C2243.66 297.938 2265.8 298.01 2287.83 296.333C2310.57 294.843 2333.15 291.481 2355.39 286.271C2381.58 280.352 2395.29 271.709 2397.31 269.632L2399.5 273.154L2399.49 273.155Z" fill="#FFFF00" stroke="black" stroke-width="0.57" stroke-linecap="round" stroke-linejoin="round"/>
<path fill-rule="evenodd" clip-rule="evenodd" d="M2162.28 373.741C2187.72 386.997 2242.4 390.789 2293.69 387.933C2340.35 384.873 2400.56 372.509 2422.31 357.305L2420.63 342.438C2414.41 355.54 2350.13 372.02 2292.29 375.422C2234.45 378.825 2180.06 372.281 2161.22 360.362L2162.28 373.741Z" fill="#FFFF00" stroke="black" stroke-width="0.57" stroke-linecap="round" stroke-linejoin="round"/>
<path fill-rule="evenodd" clip-rule="evenodd" d="M2423.34 354.03L2423.59 357.589C2420.45 362.46 2399.57 370.912 2373.06 377.645C2352.87 382.58 2326.4 387.066 2293.19 389.3C2261.64 391.422 2236.34 390.55 2216.54 388.464C2185.33 385.442 2164.96 377.837 2160.82 375.436L2160.52 371.285C2173.06 379.47 2205.76 383.87 2216.72 385.152C2236.36 387.236 2261.54 388.089 2292.94 385.977C2326 383.754 2352.32 379.343 2372.38 374.404C2391.43 369.942 2418.3 359.872 2423.32 354.03L2423.34 354.03ZM2422.44 341.38L2422.69 344.94C2419.55 349.81 2398.67 358.262 2372.17 365.008C2351.97 369.943 2325.51 374.415 2292.29 376.65C2260.74 378.772 2235.44 377.914 2215.64 375.827C2184.43 372.792 2164.06 365.187 2159.92 362.786L2159.63 358.649C2172.16 366.82 2204.87 371.233 2215.83 372.514C2235.46 374.586 2260.64 375.44 2292.05 373.327C2325.1 371.104 2351.43 366.693 2371.48 361.754C2390.54 357.292 2417.4 347.222 2422.43 341.381L2422.44 341.38Z" fill="#FFFF00" stroke="black" stroke-width="0.57" stroke-linecap="round" stroke-linejoin="round"/>
<path fill-rule="evenodd" clip-rule="evenodd" d="M2297.73 446.408C2241.62 449.8 2192.4 436.044 2182.03 433.931L2190.36 446.569C2208.89 453.928 2256.64 463.532 2299.18 459.245C2341.71 454.959 2378.62 448.728 2403.88 432.405L2410.5 418.26C2393.29 429.038 2333.18 443.865 2297.73 446.356" fill="#FFFF00"/>
<path d="M2297.73 446.408C2241.62 449.8 2192.4 436.044 2182.03 433.931L2190.36 446.569C2208.89 453.928 2256.64 463.532 2299.18 459.245C2341.71 454.959 2378.62 448.728 2403.88 432.405L2410.5 418.26C2393.29 429.038 2333.18 443.865 2297.73 446.356" stroke="black" stroke-width="0.57" stroke-linecap="round" stroke-linejoin="round"/>
<path fill-rule="evenodd" clip-rule="evenodd" d="M2406.51 429.218C2405.54 431.228 2404.54 433.205 2403.51 435.148C2390.75 440.968 2377.62 445.771 2364.23 449.524C2347.69 454.596 2321.92 459.233 2298.79 460.802C2249.07 463.329 2207.62 455.056 2187.82 446.885L2186.06 443.967L2186.29 443.504L2188.98 444.484C2223.98 456.015 2262.57 458.962 2298.85 457.512C2320.52 455.957 2341.98 452.239 2363 446.4C2391.07 437.991 2402.27 432.315 2405.65 429.857L2406.51 429.231L2406.51 429.218ZM2412.22 416.454L2412.3 416.554C2411.59 418.212 2410.85 419.899 2410.08 421.587C2403.66 424.658 2386.17 431.866 2360.31 437.79C2343.26 441.577 2332.72 444.925 2298.48 447.981C2234.1 450.45 2191.48 438.97 2181.34 436.062L2179.65 432.969C2217.67 441.511 2256.26 446.663 2298.26 444.63C2329.57 441.758 2342.73 438.233 2359.64 434.443C2389.77 427.005 2404.73 420.257 2409.23 418.305L2409 418.017L2412.21 416.389L2412.22 416.454Z" fill="#FFFF00" stroke="black" stroke-width="0.55" stroke-linecap="round" stroke-linejoin="round"/>
<path fill-rule="evenodd" clip-rule="evenodd" d="M2407.85 345.41C2411.01 387.288 2394.8 426.152 2380.76 443.753C2360.18 469.956 2331.35 486.011 2300.22 488.622C2263.07 491.899 2226.05 466.712 2215.79 455.246C2195.72 432.838 2178.61 403.804 2175.27 363.364C2174.34 317.483 2187.85 284.646 2209.2 261.194C2230.56 237.743 2260.31 225.117 2285.77 224.17C2315.15 223.078 2350.6 237.099 2376.5 267.931C2393.5 288.13 2401.86 310.731 2407.85 345.41ZM2280.75 209.831C2352.18 205.026 2415.62 267.081 2421.37 348.025C2427.11 428.968 2373.04 498.942 2301.6 503.746C2230.17 508.551 2167.23 446.449 2161.48 365.506C2155.74 284.562 2209.32 214.635 2280.75 209.831Z" fill="#FFFF00" stroke="black" stroke-width="0.57" stroke-linecap="round" stroke-linejoin="round"/>
<path fill-rule="evenodd" clip-rule="evenodd" d="M2281.06 209.295C2352.55 204.486 2415.6 266.792 2421.36 347.999C2427.12 429.205 2373.47 499.361 2301.98 504.17C2230.49 508.979 2167.49 446.669 2161.72 365.463C2155.96 284.257 2209.57 214.104 2281.06 209.295ZM2164.59 365.27C2170.22 444.572 2232.16 505.606 2301.76 500.924C2371.37 496.243 2424.1 427.495 2418.47 348.193C2412.85 268.892 2350.9 207.858 2281.29 212.54C2211.69 217.222 2158.97 285.969 2164.59 365.27Z" fill="#FFFF00" stroke="black" stroke-width="0.57" stroke-linecap="round" stroke-linejoin="round"/>
<path fill-rule="evenodd" clip-rule="evenodd" d="M2282.03 221.544C2347.23 217.158 2405.25 274.326 2410.52 348.596C2415.79 422.866 2366.4 487.259 2301.2 491.644C2236 496.03 2177.95 438.864 2172.68 364.594C2167.41 290.324 2216.81 225.931 2282 221.546L2282.03 221.544ZM2175.57 364.399C2180.71 436.883 2237.34 492.679 2300.97 488.4C2364.59 484.12 2412.8 421.272 2407.66 348.788C2402.52 276.304 2345.9 220.534 2282.27 224.814C2218.63 229.095 2170.43 291.916 2175.57 364.399Z" fill="#FFFF00" stroke="black" stroke-width="0.57" stroke-linecap="round" stroke-linejoin="round"/>
<path fill-rule="evenodd" clip-rule="evenodd" d="M2286.35 208.345L2275.24 209.093L2296.25 505.334L2307.41 504.583L2286.35 208.345Z" fill="#FFFF00" stroke="black" stroke-width="0.57" stroke-linecap="round" stroke-linejoin="round"/>
<path fill-rule="evenodd" clip-rule="evenodd" d="M2285.12 206.726L2287.95 206.535L2309.21 506.191L2306.38 506.382L2285.12 206.726ZM2274.09 207.468L2276.93 207.276L2298.19 506.933L2295.33 507.125L2274.08 207.482L2274.09 207.468Z" fill="#FFFF00" stroke="black" stroke-width="0.57" stroke-linecap="round" stroke-linejoin="round"/>
<path fill-rule="evenodd" clip-rule="evenodd" d="M2421.83 353.709L2421.05 342.753L2412.61 334.966L2367.08 324.566L2302.31 321.452L2225.27 331.122L2171.28 349.747L2160.83 359.848L2161.6 370.803L2188.74 354.565L2254.76 338.153L2319 333.832L2366.61 336.609L2400.02 343.336L2421.83 353.709Z" fill="#FFFF00" stroke="black" stroke-width="0.57" stroke-linecap="round" stroke-linejoin="round"/>
<path fill-rule="evenodd" clip-rule="evenodd" d="M2289.95 333.846C2320.6 331.718 2350.59 333.08 2374.54 336.722C2399.28 340.601 2416.9 346.371 2423.32 353.74L2423.59 357.589C2415.84 348.396 2392.33 342.864 2374.24 340.002C2346.31 336.085 2318.18 335.136 2290.2 337.168C2258.03 339.398 2228.33 344.88 2205.62 351.542C2187.41 356.964 2163.3 366.901 2160.82 375.291L2160.53 371.284C2161.82 365.509 2179.6 355.827 2204.98 348.22C2227.85 341.508 2257.57 336.09 2289.95 333.846ZM2289.06 321.209C2319.7 319.081 2349.69 320.443 2373.64 324.072C2398.38 327.964 2416 333.722 2422.42 341.09L2422.69 344.939C2414.94 335.76 2391.43 330.214 2373.34 327.365C2349.57 323.764 2319.79 322.415 2289.31 324.531C2257.14 326.761 2227.57 332.221 2204.86 338.883C2187.27 343.933 2162.19 354.279 2159.91 362.642L2159.62 358.635C2160.92 352.926 2179.04 342.916 2204.07 335.584C2226.95 328.871 2256.67 323.454 2289.05 321.21L2289.06 321.209Z" fill="#FFFF00" stroke="black" stroke-width="0.57" stroke-linecap="round" stroke-linejoin="round"/>
<path fill-rule="evenodd" clip-rule="evenodd" d="M2283.86 256.806C2332.15 253.281 2374.85 258.394 2394.93 268.315L2402.94 281.648C2385.46 272.529 2339.24 264.92 2284.89 270.173C2240.52 273.474 2193.47 281.905 2170.65 297.92L2177.91 281.408C2196.62 268.601 2242.26 259.67 2283.82 256.809" fill="#FFFF00"/>
<path d="M2283.86 256.806C2332.15 253.281 2374.85 258.394 2394.93 268.315L2402.94 281.648C2385.46 272.529 2339.24 264.92 2284.89 270.173C2240.52 273.474 2193.47 281.905 2170.65 297.92L2177.91 281.408C2196.62 268.601 2242.26 259.67 2283.82 256.809" stroke="black" stroke-width="0.57" stroke-linecap="round" stroke-linejoin="round"/>
<path fill-rule="evenodd" clip-rule="evenodd" d="M2285.32 268.165C2312.86 266.233 2339.61 266.202 2361.1 269.112C2381.06 271.967 2400.36 276.951 2403.29 280.133L2405.67 284.183C2398.79 279.763 2382.13 275.458 2360.91 272.372C2339.69 269.285 2312.91 269.609 2285.51 271.531C2254.4 273.504 2230.37 276.995 2209.92 282.488C2188.28 288.63 2173.59 296.31 2170.05 299.689L2171.78 295.124C2178.77 290.404 2189.99 284.542 2209.15 279.254C2230.28 273.359 2254.6 270.389 2285.32 268.125L2285.32 268.165ZM2284.42 255.528C2310.79 253.675 2336.94 253.592 2357.52 256.379C2373.78 258.835 2390.01 263.301 2396.15 267.824L2399.58 273.123C2393.94 266.904 2373.99 262.042 2356.52 259.72C2336.1 257.133 2311.02 257.25 2284.65 258.773C2256.98 260.726 2231.59 264.361 2212 269.81C2193.36 275.169 2181.47 280.838 2176.58 284.968L2178.93 280.191C2185.76 275.455 2197.01 270.753 2211.29 266.584C2231 261.101 2256.59 257.493 2284.42 255.528Z" fill="#FFFF00" stroke="black" stroke-width="0.57" stroke-linecap="round" stroke-linejoin="round"/>
<path fill-rule="evenodd" clip-rule="evenodd" d="M2360.42 413.669C2336.18 410.218 2312.21 411.092 2295.51 412.439C2215.07 418.919 2190.33 438.375 2187.54 443.948L2180.72 433.214C2200.02 414.969 2243.2 402.548 2295.06 400.036C2322 398.726 2345.35 399.2 2365.18 402.183L2360.42 413.682" fill="#FFFF00"/>
<path d="M2360.42 413.669C2336.18 410.218 2312.21 411.092 2295.51 412.439C2215.07 418.919 2190.33 438.375 2187.54 443.948L2180.72 433.214C2200.02 414.969 2243.2 402.548 2295.06 400.036C2322 398.726 2345.35 399.2 2365.18 402.183L2360.42 413.682" stroke="black" stroke-width="0.57" stroke-linecap="round" stroke-linejoin="round"/>
<path fill-rule="evenodd" clip-rule="evenodd" d="M2294.93 410.894C2317.35 409.769 2339.4 409.341 2360.95 412.406L2359.63 415.597C2339.67 412.781 2318.51 412.621 2295.25 414.318C2265.53 416.053 2235.69 421.214 2210.13 431.513C2202.07 434.694 2188.82 441.617 2187.79 446.689L2186.06 443.928C2186.29 440.956 2194.12 434.292 2209.21 428.328C2238.48 416.565 2266.39 413.038 2294.93 410.894ZM2295.04 398.031C2318.28 396.956 2342.32 396.567 2365.99 400.241L2364.62 403.554C2343.24 400.227 2323.04 400.002 2295.41 401.372C2265.62 403.442 2234.17 407.986 2206.04 419.407C2197.01 423.104 2181.42 430.817 2181.26 436.107L2179.52 433.136C2179.53 428.344 2192.95 421.185 2205.14 416.221C2233.38 404.713 2264.95 400.121 2294.99 398.035L2295.04 398.031Z" fill="#FFFF00" stroke="black" stroke-width="0.55" stroke-linecap="round" stroke-linejoin="round"/>
<path fill-rule="evenodd" clip-rule="evenodd" d="M2411.45 419.383L2402.99 437.11L2373.24 410.932L2297.23 360.704L2212.32 315.535L2168.96 301.979L2176.6 282.433L2179.52 280.336L2206.27 286.02L2296.39 330.773L2348.74 363.152L2393.12 394.576L2411.75 415.76L2411.45 419.383Z" fill="#FFFF00" stroke="black" stroke-width="0.57" stroke-linecap="round" stroke-linejoin="round"/>
<path fill-rule="evenodd" clip-rule="evenodd" d="M2167.46 302.489C2174.46 296.29 2230.81 320.151 2290.49 355.297C2350.17 390.443 2407.43 431.097 2403.1 439.69L2401.7 442.675L2401.01 443.381C2401.15 443.253 2401.88 442.002 2400.62 439.065C2397.56 430.229 2356.61 397.995 2289.62 358.47C2224.39 320.503 2170.72 298.588 2166.05 306.2L2167.46 302.489ZM2413.41 418.988C2417.29 408.168 2363.83 368.393 2298.29 330.566C2231.38 293.689 2183.54 272.543 2175.63 280.334L2174.03 284.335C2174.04 284.545 2174.08 284.068 2174.45 283.686C2175.87 282.073 2178.42 282.007 2179.56 281.904C2194.08 281.178 2237.05 300.039 2297.87 333.973C2324.51 349.115 2410.87 403.399 2411.78 420.246C2411.88 421.691 2412 421.986 2411.58 422.727L2413.41 418.988Z" fill="#FFFF00" stroke="black" stroke-width="0.57" stroke-linecap="round" stroke-linejoin="round"/>
<path d="M2214.93 378.211C2216.75 401.545 2226.58 423.326 2242.28 438.862C2257.98 454.397 2278.31 462.445 2298.88 461.272C2319.51 459.884 2338.64 449.265 2352.08 431.741C2365.52 414.217 2372.17 391.217 2370.57 367.781L2362.21 249.913L2206.53 260.174L2214.9 378.213L2214.93 378.211Z" fill="white" stroke="black" stroke-width="0.67"/>
<path d="M2217.81 378.176C2218.61 389.26 2221.34 400.101 2225.84 410.072C2230.33 420.043 2236.51 428.947 2244.01 436.269C2255.25 447.429 2269.08 454.631 2283.77 456.965C2298.45 459.299 2313.32 456.66 2326.5 449.381C2339.68 442.103 2350.58 430.511 2357.82 416.07C2365.07 401.63 2368.33 384.988 2367.19 368.246L2359.08 253.885L2209.87 263.921L2217.89 378.21M2331.49 290.136L2336.66 362.935L2337.15 370.637C2337.3 372.744 2337.34 374.856 2337.28 376.963C2336.88 388.177 2333.13 398.823 2326.64 407.151C2322.83 412.129 2318.18 416.185 2312.95 419.089C2307.72 421.993 2302.01 423.688 2296.16 424.076C2284.39 424.669 2272.78 420.011 2263.81 411.097C2254.85 402.182 2249.24 389.719 2248.18 376.37L2242.48 295.939L2331.55 290.132L2331.49 290.136Z" fill="#FF0000"/>
<path d="M2217.81 378.176C2218.61 389.26 2221.34 400.101 2225.84 410.072C2230.33 420.043 2236.51 428.947 2244.01 436.269C2255.25 447.429 2269.08 454.631 2283.77 456.965C2298.45 459.299 2313.32 456.66 2326.5 449.381C2339.68 442.103 2350.58 430.511 2357.82 416.07C2365.07 401.63 2368.33 384.988 2367.19 368.246L2359.08 253.885L2209.87 263.921L2217.89 378.21M2331.49 290.136L2336.66 362.935L2337.15 370.637C2337.3 372.744 2337.34 374.856 2337.28 376.963C2336.88 388.177 2333.13 398.823 2326.64 407.151C2322.83 412.129 2318.18 416.185 2312.95 419.089C2307.72 421.993 2302.01 423.688 2296.16 424.076C2284.39 424.669 2272.78 420.011 2263.81 411.097C2254.85 402.182 2249.24 389.719 2248.18 376.37L2242.48 295.939L2331.55 290.132L2331.49 290.136Z" stroke="black" stroke-width="0.51"/>
<path d="M2221.52 293.112C2221.11 284.89 2226.11 282.588 2226.14 282.559C2226.17 282.53 2231.84 284.287 2232.4 292.459L2221.52 293.112Z" fill="#FFFF00"/>
<path d="M2216.37 283.361L2216.15 292.879L2221.57 292.514C2221.01 284.633 2226.14 283.047 2226.27 283.065C2226.4 283.083 2231.62 284.434 2232.28 291.794L2237.72 291.428L2236.06 281.971L2216.4 283.293L2216.37 283.361Z" fill="#FFFF00" stroke="black" stroke-width="0.5"/>
<path d="M2215.79 292.943L2238 291.449C2238.24 291.49 2238.46 291.623 2238.63 291.826C2238.79 292.029 2238.9 292.289 2238.91 292.562C2238.93 292.836 2238.87 293.107 2238.73 293.33C2238.6 293.553 2238.4 293.714 2238.16 293.787L2215.96 295.281C2215.72 295.24 2215.5 295.107 2215.33 294.904C2215.16 294.702 2215.06 294.442 2215.04 294.168C2215.02 293.894 2215.09 293.623 2215.22 293.4C2215.36 293.177 2215.56 293.016 2215.79 292.943Z" fill="#FFFF00" stroke="black" stroke-width="0.5"/>
<path d="M2223.86 292.36C2223.51 287.434 2226.37 285.83 2226.4 285.841C2227.44 286.369 2228.33 287.229 2228.96 288.315C2229.59 289.401 2229.93 290.665 2229.93 291.952L2223.86 292.36Z" fill="#FFFF00" stroke="black" stroke-width="0.5"/>
<path d="M2215.3 279.474L2236.61 278.041C2236.83 278.066 2237.04 278.18 2237.2 278.363C2237.36 278.545 2237.45 278.785 2237.47 279.038C2237.49 279.292 2237.43 279.542 2237.29 279.744C2237.16 279.947 2236.97 280.088 2236.75 280.142L2215.45 281.575C2215.23 281.551 2215.02 281.436 2214.86 281.254C2214.7 281.071 2214.6 280.831 2214.59 280.578C2214.57 280.324 2214.63 280.074 2214.76 279.872C2214.89 279.669 2215.08 279.528 2215.3 279.474Z" fill="#FFFF00" stroke="black" stroke-width="0.5"/>
<path d="M2215.9 281.585L2236.27 280.214C2236.49 280.239 2236.7 280.354 2236.86 280.536C2237.02 280.719 2237.12 280.959 2237.14 281.212C2237.15 281.466 2237.09 281.716 2236.96 281.918C2236.83 282.121 2236.64 282.262 2236.42 282.316L2216.05 283.686C2215.83 283.661 2215.62 283.547 2215.46 283.364C2215.3 283.182 2215.21 282.942 2215.19 282.689C2215.17 282.435 2215.23 282.185 2215.36 281.983C2215.49 281.78 2215.69 281.639 2215.9 281.585Z" fill="#FFFF00" stroke="black" stroke-width="0.5"/>
<path d="M2221.42 265.375L2223.03 265.266L2223.13 266.58L2224.28 266.502L2224.19 265.189L2225.84 265.077L2225.94 266.391L2227.09 266.313L2227 265L2228.64 264.889L2228.85 267.884C2228.86 267.989 2228.85 268.095 2228.82 268.194C2228.79 268.293 2228.74 268.384 2228.68 268.461C2228.62 268.538 2228.54 268.599 2228.46 268.642C2228.38 268.684 2228.28 268.707 2228.19 268.707L2222.41 269.096C2222.22 269.113 2222.03 269.046 2221.88 268.908C2221.73 268.771 2221.63 268.574 2221.6 268.359L2221.39 265.403L2221.42 265.375Z" fill="#FFFF00" stroke="black" stroke-width="0.5"/>
<path d="M2227.71 268.977L2228.75 278.556L2223.11 278.935L2222.81 269.307L2227.71 268.977Z" fill="#FFFF00" stroke="black" stroke-width="0.5"/>
<path d="M2221.15 273.893L2221.67 279.058L2216.27 279.421L2216.06 274.236L2221.15 273.893Z" fill="#FFFF00" stroke="black" stroke-width="0.5"/>
<path d="M2235.05 272.958L2235.59 278.122L2230.18 278.486L2229.97 273.3L2235.05 272.958Z" fill="#FFFF00" stroke="black" stroke-width="0.5"/>
<path d="M2214.82 270.544L2216.39 270.439L2216.48 271.752L2217.64 271.674L2217.55 270.361L2219.16 270.253L2219.25 271.566L2220.41 271.488L2220.31 270.175L2221.92 270.067L2222.13 273.062C2222.14 273.166 2222.13 273.271 2222.1 273.37C2222.07 273.469 2222.03 273.56 2221.97 273.637C2221.91 273.714 2221.83 273.776 2221.75 273.819C2221.66 273.861 2221.57 273.883 2221.48 273.884L2215.83 274.265C2215.64 274.278 2215.46 274.21 2215.31 274.075C2215.16 273.94 2215.07 273.748 2215.04 273.539L2214.83 270.57L2214.82 270.544Z" fill="#FFFF00" stroke="black" stroke-width="0.5"/>
<path d="M2228.7 269.611L2230.27 269.505L2230.36 270.819L2231.52 270.741L2231.43 269.427L2233.03 269.319L2233.13 270.633L2234.28 270.555L2234.19 269.241L2235.8 269.133L2236.01 272.128C2236.02 272.233 2236.01 272.338 2235.98 272.437C2235.95 272.536 2235.91 272.627 2235.85 272.704C2235.79 272.781 2235.71 272.843 2235.63 272.885C2235.54 272.928 2235.45 272.95 2235.36 272.951L2229.7 273.331C2229.52 273.344 2229.33 273.277 2229.19 273.142C2229.04 273.008 2228.94 272.816 2228.91 272.606L2228.7 269.637L2228.7 269.611Z" fill="#FFFF00" stroke="black" stroke-width="0.5"/>
<path d="M2224.92 272.227C2224.91 272.053 2224.96 271.882 2225.06 271.751C2225.16 271.621 2225.3 271.542 2225.45 271.531C2225.61 271.521 2225.76 271.58 2225.87 271.696C2225.99 271.812 2226.06 271.975 2226.08 272.149L2226.24 274.435L2225.08 274.513L2224.92 272.227Z" fill="black"/>
<path d="M2218.17 276.007C2218.16 275.844 2218.2 275.683 2218.3 275.56C2218.39 275.437 2218.52 275.363 2218.67 275.353C2218.81 275.344 2218.96 275.399 2219.07 275.508C2219.18 275.617 2219.24 275.77 2219.26 275.934L2219.38 277.694L2218.29 277.767L2218.17 276.007Z" fill="black"/>
<path d="M2232.12 275.069C2232.11 274.906 2232.15 274.745 2232.25 274.622C2232.34 274.499 2232.47 274.425 2232.62 274.415C2232.76 274.406 2232.91 274.461 2233.02 274.57C2233.13 274.679 2233.19 274.832 2233.21 274.996L2233.33 276.756L2232.24 276.83L2232.12 275.069Z" fill="black"/>
<path d="M2226.41 362.088C2226 353.854 2231 351.564 2231.03 351.522C2231.07 351.481 2236.73 353.251 2237.29 361.423L2226.42 362.154" fill="#FFFF00"/>
<path d="M2221.26 352.351L2221.04 361.856L2226.47 361.491C2225.91 353.609 2231.03 352.024 2231.16 352.041C2231.29 352.059 2236.51 353.424 2237.18 360.771L2242.61 360.405L2240.95 350.947L2221.29 352.27L2221.26 352.351Z" fill="#FFFF00" stroke="black" stroke-width="0.5"/>
<path d="M2220.68 361.92L2242.89 360.426C2243.13 360.46 2243.36 360.589 2243.53 360.791C2243.7 360.993 2243.81 361.255 2243.83 361.531C2243.85 361.807 2243.78 362.081 2243.64 362.303C2243.5 362.526 2243.29 362.685 2243.06 362.751L2220.85 364.245C2220.61 364.21 2220.38 364.081 2220.21 363.879C2220.04 363.677 2219.93 363.416 2219.92 363.139C2219.9 362.863 2219.96 362.59 2220.1 362.367C2220.24 362.144 2220.45 361.986 2220.68 361.92Z" fill="#FFFF00" stroke="black" stroke-width="0.5"/>
<path d="M2228.75 361.324C2228.4 356.398 2231.27 354.806 2231.29 354.805C2232.33 355.332 2233.23 356.192 2233.85 357.278C2234.48 358.364 2234.82 359.629 2234.83 360.915L2228.75 361.324Z" fill="#FFFF00" stroke="black" stroke-width="0.5"/>
<path d="M2220.19 348.463L2241.5 347.03C2241.72 347.055 2241.93 347.169 2242.09 347.352C2242.25 347.535 2242.35 347.775 2242.36 348.028C2242.38 348.281 2242.32 348.532 2242.19 348.734C2242.06 348.937 2241.87 349.078 2241.65 349.132L2220.34 350.565C2220.12 350.54 2219.91 350.426 2219.75 350.243C2219.59 350.06 2219.5 349.821 2219.48 349.567C2219.46 349.314 2219.52 349.064 2219.65 348.861C2219.79 348.659 2219.98 348.518 2220.19 348.463Z" fill="#FFFF00" stroke="black" stroke-width="0.5"/>
<path d="M2220.8 350.548L2241.16 349.178C2241.39 349.203 2241.6 349.317 2241.76 349.5C2241.91 349.683 2242.01 349.923 2242.03 350.176C2242.05 350.429 2241.98 350.68 2241.85 350.882C2241.72 351.084 2241.53 351.225 2241.31 351.28L2220.94 352.65C2220.72 352.625 2220.51 352.511 2220.35 352.328C2220.2 352.145 2220.1 351.905 2220.08 351.652C2220.06 351.399 2220.12 351.149 2220.26 350.946C2220.39 350.744 2220.58 350.603 2220.8 350.548Z" fill="#FFFF00" stroke="black" stroke-width="0.5"/>
<path d="M2226.32 334.338L2227.92 334.229L2228.02 335.543L2229.17 335.465L2229.08 334.152L2230.73 334.04L2230.83 335.354L2231.98 335.276L2231.89 333.963L2233.53 333.852L2233.75 336.847C2233.75 336.952 2233.74 337.058 2233.71 337.157C2233.68 337.256 2233.64 337.347 2233.57 337.424C2233.51 337.501 2233.44 337.562 2233.35 337.605C2233.27 337.647 2233.18 337.669 2233.08 337.67L2227.3 338.059C2227.11 338.076 2226.92 338.009 2226.77 337.871C2226.62 337.734 2226.52 337.537 2226.49 337.322L2226.28 334.366L2226.32 334.338Z" fill="#FFFF00" stroke="black" stroke-width="0.5"/>
<path d="M2232.6 337.94L2233.64 347.519L2228 347.898L2227.7 338.27L2232.6 337.94Z" fill="#FFFF00" stroke="black" stroke-width="0.5"/>
<path d="M2226.04 342.857L2226.57 348.021L2221.17 348.385L2220.95 343.199L2226.04 342.857Z" fill="#FFFF00" stroke="black" stroke-width="0.5"/>
<path d="M2239.94 341.922L2240.48 347.086L2235.07 347.45L2234.86 342.263L2239.94 341.922Z" fill="#FFFF00" stroke="black" stroke-width="0.5"/>
<path d="M2219.71 339.507L2221.28 339.402L2221.38 340.715L2222.53 340.637L2222.44 339.324L2224.05 339.216L2224.14 340.529L2225.3 340.451L2225.2 339.138L2226.81 339.03L2227.03 342.038C2227.03 342.141 2227.02 342.245 2226.99 342.342C2226.96 342.44 2226.92 342.529 2226.86 342.605C2226.79 342.681 2226.72 342.741 2226.64 342.783C2226.55 342.824 2226.46 342.846 2226.37 342.847L2220.72 343.228C2220.53 343.247 2220.34 343.184 2220.2 343.051C2220.05 342.918 2219.95 342.726 2219.92 342.515L2219.71 339.547L2219.71 339.507Z" fill="#FFFF00" stroke="black" stroke-width="0.5"/>
<path d="M2233.59 338.574L2235.16 338.468L2235.26 339.782L2236.41 339.704L2236.32 338.39L2237.93 338.282L2238.02 339.596L2239.18 339.518L2239.08 338.204L2240.69 338.096L2240.9 341.104C2240.91 341.208 2240.9 341.311 2240.87 341.409C2240.84 341.506 2240.8 341.596 2240.74 341.671C2240.67 341.747 2240.6 341.808 2240.52 341.849C2240.43 341.891 2240.34 341.913 2240.25 341.913L2234.6 342.294C2234.41 342.31 2234.23 342.246 2234.08 342.114C2233.93 341.981 2233.83 341.791 2233.8 341.582L2233.59 338.613L2233.59 338.574Z" fill="#FFFF00" stroke="black" stroke-width="0.5"/>
<path d="M2229.81 341.177C2229.8 341.003 2229.85 340.832 2229.95 340.701C2230.05 340.571 2230.19 340.492 2230.34 340.482C2230.5 340.471 2230.65 340.531 2230.77 340.646C2230.88 340.762 2230.96 340.925 2230.97 341.1L2231.13 343.385L2229.97 343.463L2229.81 341.177Z" fill="black"/>
<path d="M2223.06 344.945C2223.05 344.781 2223.09 344.62 2223.19 344.497C2223.28 344.375 2223.42 344.3 2223.56 344.291C2223.7 344.281 2223.85 344.337 2223.96 344.446C2224.07 344.554 2224.14 344.708 2224.15 344.871L2224.27 346.632L2223.18 346.705L2223.06 344.945Z" fill="black"/>
<path d="M2237.01 344.006C2237 343.843 2237.04 343.682 2237.14 343.559C2237.23 343.436 2237.36 343.362 2237.51 343.352C2237.65 343.343 2237.8 343.398 2237.91 343.507C2238.02 343.616 2238.08 343.769 2238.1 343.933L2238.22 345.693L2237.13 345.767L2237.01 344.006Z" fill="black"/>
<path d="M2255.18 432.27C2249.74 426.684 2251.76 421.005 2251.76 420.951C2251.77 420.898 2256.77 417.619 2262.28 423.042L2255.18 432.27Z" fill="#FFFF00"/>
<path d="M2245.54 429.408L2251.34 436.435L2254.86 431.804C2249.62 426.586 2252.08 421.326 2252.18 421.24C2252.28 421.154 2256.73 417.911 2261.79 422.679L2265.31 418.034L2258.24 412.53L2245.49 429.371L2245.54 429.408Z" fill="#FFFF00" stroke="black" stroke-width="0.5"/>
<path d="M2251.12 436.767L2265.51 417.81C2265.69 417.618 2265.93 417.516 2266.18 417.523C2266.43 417.531 2266.67 417.649 2266.85 417.852C2267.05 418.024 2267.19 418.277 2267.23 418.556C2267.27 418.835 2267.22 419.121 2267.08 419.354L2252.69 438.311C2252.51 438.502 2252.28 438.604 2252.03 438.596C2251.78 438.588 2251.54 438.47 2251.37 438.269C2251.16 438.1 2251.02 437.848 2250.98 437.568C2250.93 437.288 2250.98 437.001 2251.12 436.767Z" fill="#FFFF00" stroke="black" stroke-width="0.5"/>
<path d="M2256.33 429.817C2253.02 426.529 2253.99 423.099 2254 423.085C2255.05 422.621 2256.2 422.521 2257.32 422.795C2258.43 423.07 2259.46 423.708 2260.27 424.63L2256.33 429.817Z" fill="#FFFF00" stroke="black" stroke-width="0.5"/>
<path d="M2242.37 427.47L2256.19 409.303C2256.36 409.127 2256.57 409.028 2256.8 409.025C2257.03 409.023 2257.26 409.116 2257.43 409.288C2257.61 409.46 2257.72 409.697 2257.75 409.956C2257.78 410.214 2257.73 410.474 2257.6 410.686L2243.78 428.866C2243.62 429.053 2243.4 429.158 2243.17 429.159C2242.94 429.16 2242.71 429.056 2242.54 428.87C2242.36 428.704 2242.24 428.464 2242.21 428.203C2242.18 427.941 2242.23 427.678 2242.37 427.47Z" fill="#FFFF00" stroke="black" stroke-width="0.5"/>
<path d="M2244.1 428.502L2257.33 411.114C2257.49 410.952 2257.7 410.864 2257.91 410.869C2258.13 410.874 2258.34 410.971 2258.49 411.141C2258.66 411.296 2258.78 411.515 2258.81 411.757C2258.85 411.998 2258.81 412.244 2258.69 412.447L2245.5 429.833C2245.33 429.985 2245.12 430.064 2244.9 430.056C2244.68 430.048 2244.47 429.954 2244.31 429.791C2244.14 429.627 2244.03 429.403 2243.99 429.159C2243.95 428.914 2243.98 428.663 2244.09 428.45L2244.1 428.502Z" fill="#FFFF00" stroke="black" stroke-width="0.5"/>
<path d="M2237.67 412.436L2238.73 411.045L2239.61 411.91L2240.37 410.908L2239.47 410.032L2240.54 408.64L2241.42 409.518L2242.19 408.516L2241.29 407.639L2242.35 406.248L2244.36 408.224C2244.44 408.292 2244.5 408.376 2244.54 408.471C2244.59 408.565 2244.61 408.669 2244.62 408.775C2244.63 408.88 2244.62 408.986 2244.59 409.086C2244.56 409.186 2244.51 409.277 2244.44 409.354L2240.7 414.291C2240.58 414.448 2240.4 414.543 2240.21 414.555C2240.02 414.568 2239.83 414.498 2239.69 414.359L2237.69 412.395L2237.67 412.436Z" fill="#FFFF00" stroke="black" stroke-width="0.5"/>
<path d="M2244.33 409.916L2251.05 415.971L2247.38 420.771L2241.1 414.093L2244.29 409.919" fill="#FFFF00"/>
<path d="M2244.33 409.916L2251.05 415.971L2247.38 420.771L2241.1 414.093L2244.29 409.919" stroke="black" stroke-width="0.5"/>
<path d="M2242.88 418.738L2246.49 422.019L2242.99 426.637L2239.58 423.025L2242.88 418.685L2242.88 418.738Z" fill="#FFFF00" stroke="black" stroke-width="0.5"/>
<path d="M2251.89 406.873L2255.5 410.155L2252 414.772L2248.6 411.213L2251.89 406.873Z" fill="#FFFF00" stroke="black" stroke-width="0.5"/>
<path d="M2236.41 421.443L2237.48 420.052L2238.35 420.917L2239.09 419.93L2238.15 419.162L2239.21 417.771L2240.11 418.647L2240.85 417.674L2239.95 416.784L2241.02 415.392L2243.03 417.382C2243.1 417.45 2243.16 417.533 2243.2 417.627C2243.24 417.72 2243.27 417.822 2243.28 417.926C2243.28 418.03 2243.27 418.135 2243.24 418.233C2243.21 418.332 2243.17 418.422 2243.11 418.499L2239.44 423.325C2239.31 423.478 2239.14 423.57 2238.95 423.583C2238.77 423.596 2238.58 423.528 2238.43 423.393L2236.43 421.429L2236.41 421.443Z" fill="#FFFF00" stroke="black" stroke-width="0.5"/>
<path d="M2245.43 409.578L2246.49 408.187L2247.36 409.039L2248.11 408.065L2247.21 407.188L2248.27 405.797L2249.17 406.674L2249.91 405.687L2249.02 404.81L2250.08 403.419L2252.09 405.408C2252.16 405.475 2252.22 405.558 2252.27 405.651C2252.31 405.745 2252.34 405.847 2252.34 405.952C2252.35 406.057 2252.34 406.162 2252.31 406.26C2252.28 406.359 2252.23 406.449 2252.17 406.525L2248.51 411.35C2248.39 411.504 2248.21 411.596 2248.03 411.608C2247.84 411.621 2247.66 411.553 2247.51 411.418L2245.5 409.455L2245.43 409.578Z" fill="#FFFF00" stroke="black" stroke-width="0.5"/>
<path d="M2244.44 414.489C2244.38 414.432 2244.33 414.363 2244.3 414.287C2244.27 414.21 2244.25 414.127 2244.24 414.042C2244.24 413.957 2244.25 413.872 2244.27 413.792C2244.29 413.712 2244.33 413.639 2244.38 413.576C2244.43 413.512 2244.49 413.461 2244.55 413.425C2244.62 413.388 2244.69 413.367 2244.77 413.363C2244.84 413.358 2244.92 413.371 2244.99 413.399C2245.06 413.427 2245.13 413.471 2245.18 413.528L2246.72 415.035L2245.99 416.008L2244.44 414.489Z" fill="black"/>
<path d="M2242.16 422.653C2242.09 422.603 2242.04 422.539 2242 422.464C2241.96 422.389 2241.93 422.305 2241.92 422.219C2241.91 422.132 2241.91 422.044 2241.94 421.961C2241.96 421.877 2241.99 421.8 2242.04 421.735C2242.09 421.669 2242.16 421.617 2242.23 421.581C2242.3 421.546 2242.37 421.527 2242.45 421.527C2242.53 421.527 2242.6 421.546 2242.67 421.581C2242.74 421.617 2242.81 421.67 2242.86 421.735L2244.1 422.892L2243.4 423.823L2242.16 422.653Z" fill="black"/>
<path d="M2251.19 410.748C2251.13 410.698 2251.07 410.633 2251.03 410.558C2250.99 410.484 2250.96 410.4 2250.95 410.313C2250.94 410.226 2250.95 410.138 2250.97 410.055C2250.99 409.972 2251.03 409.895 2251.08 409.829C2251.13 409.764 2251.19 409.712 2251.26 409.676C2251.33 409.64 2251.4 409.622 2251.48 409.622C2251.56 409.622 2251.64 409.64 2251.71 409.676C2251.78 409.712 2251.84 409.764 2251.89 409.83L2253.14 411L2252.44 411.918L2251.19 410.748Z" fill="black"/>
<path d="M2281.45 289.08C2281.04 280.859 2286.03 278.556 2286.08 278.527C2286.12 278.497 2291.77 280.256 2292.33 288.427L2281.45 289.08Z" fill="#FFFF00"/>
<path d="M2276.3 279.329L2276.08 288.847L2281.51 288.482C2281.01 280.597 2286.07 279.016 2286.19 279.033C2286.32 279.051 2291.54 280.403 2292.21 287.763L2297.65 287.396L2296 278.004L2276.34 279.327L2276.3 279.329Z" fill="#FFFF00" stroke="black" stroke-width="0.5"/>
<path d="M2275.72 288.911L2297.93 287.417C2298.17 287.458 2298.4 287.591 2298.56 287.794C2298.73 287.996 2298.83 288.256 2298.85 288.53C2298.87 288.804 2298.81 289.075 2298.67 289.298C2298.53 289.521 2298.33 289.682 2298.1 289.755L2275.88 291.25C2275.64 291.208 2275.42 291.075 2275.25 290.873C2275.09 290.67 2274.98 290.41 2274.97 290.137C2274.95 289.863 2275.01 289.592 2275.15 289.369C2275.28 289.146 2275.48 288.984 2275.72 288.911Z" fill="#FFFF00" stroke="black" stroke-width="0.5"/>
<path d="M2283.79 288.329C2283.44 283.403 2286.31 281.798 2286.32 281.81C2287.37 282.336 2288.26 283.195 2288.89 284.281C2289.52 285.367 2289.86 286.632 2289.87 287.92L2283.79 288.329Z" fill="#FFFF00" stroke="black" stroke-width="0.5"/>
<path d="M2275.24 275.441L2296.53 274.009C2296.75 274.034 2296.96 274.148 2297.12 274.331C2297.28 274.514 2297.38 274.753 2297.39 275.007C2297.41 275.26 2297.35 275.51 2297.22 275.713C2297.09 275.915 2296.9 276.056 2296.68 276.111L2275.39 277.543C2275.16 277.518 2274.95 277.404 2274.79 277.221C2274.64 277.038 2274.54 276.799 2274.52 276.545C2274.5 276.292 2274.57 276.042 2274.7 275.839C2274.83 275.637 2275.02 275.496 2275.24 275.441Z" fill="#FFFF00" stroke="black" stroke-width="0.5"/>
<path d="M2275.83 277.553L2296.21 276.182C2296.43 276.207 2296.64 276.321 2296.8 276.504C2296.96 276.687 2297.05 276.927 2297.07 277.18C2297.09 277.433 2297.03 277.684 2296.9 277.886C2296.77 278.088 2296.57 278.229 2296.36 278.284L2275.98 279.655C2275.75 279.63 2275.54 279.516 2275.39 279.333C2275.23 279.15 2275.13 278.91 2275.11 278.657C2275.09 278.404 2275.16 278.153 2275.29 277.951C2275.42 277.749 2275.61 277.608 2275.83 277.553Z" fill="#FFFF00" stroke="black" stroke-width="0.5"/>
<path d="M2281.29 261.347L2282.91 261.238L2283 262.552L2284.16 262.474L2284.07 261.161L2285.71 261.05L2285.8 262.364L2286.96 262.286L2286.87 260.972L2288.51 260.862L2288.72 263.857C2288.73 263.963 2288.72 264.07 2288.69 264.17C2288.66 264.27 2288.61 264.361 2288.54 264.439C2288.48 264.516 2288.4 264.577 2288.32 264.619C2288.23 264.661 2288.14 264.682 2288.05 264.681L2282.26 265.07C2282.08 265.083 2281.89 265.014 2281.74 264.877C2281.59 264.739 2281.49 264.544 2281.47 264.331L2281.26 261.376L2281.29 261.347Z" fill="#FFFF00" stroke="black" stroke-width="0.5"/>
<path d="M2287.64 264.946L2288.69 274.524L2283.04 274.903L2282.73 265.276L2287.64 264.946Z" fill="#FFFF00" stroke="black" stroke-width="0.5"/>
<path d="M2281.07 269.862L2281.61 275.026L2276.2 275.39L2275.99 270.204L2281.07 269.862Z" fill="#FFFF00" stroke="black" stroke-width="0.5"/>
<path d="M2294.98 268.926L2295.51 274.091L2290.11 274.454L2289.89 269.268L2294.98 268.926Z" fill="#FFFF00" stroke="black" stroke-width="0.5"/>
<path d="M2274.72 266.514L2276.29 266.409L2276.39 267.722L2277.54 267.644L2277.45 266.331L2279.06 266.223L2279.15 267.536L2280.31 267.458L2280.21 266.145L2281.82 266.037L2282.03 269.032C2282.04 269.136 2282.03 269.241 2282 269.34C2281.98 269.439 2281.93 269.53 2281.87 269.607C2281.81 269.684 2281.73 269.746 2281.65 269.789C2281.57 269.831 2281.48 269.853 2281.38 269.854L2275.73 270.235C2275.54 270.248 2275.35 270.18 2275.21 270.046C2275.06 269.911 2274.96 269.72 2274.93 269.509L2274.72 266.541L2274.72 266.514Z" fill="#FFFF00" stroke="black" stroke-width="0.5"/>
<path d="M2288.63 265.579L2290.21 265.473L2290.3 266.786L2291.46 266.709L2291.36 265.395L2292.97 265.287L2293.06 266.6L2294.22 266.523L2294.13 265.209L2295.78 265.098L2295.99 268.093C2296 268.196 2295.99 268.3 2295.97 268.398C2295.94 268.496 2295.89 268.586 2295.83 268.663C2295.77 268.74 2295.7 268.802 2295.62 268.845C2295.54 268.888 2295.45 268.912 2295.35 268.914L2289.69 269.296C2289.5 269.309 2289.32 269.241 2289.17 269.106C2289.03 268.971 2288.93 268.779 2288.9 268.57L2288.69 265.601L2288.63 265.579Z" fill="#FFFF00" stroke="black" stroke-width="0.5"/>
<path d="M2284.86 268.195C2284.84 268.021 2284.89 267.85 2284.99 267.719C2285.09 267.589 2285.23 267.51 2285.39 267.499C2285.54 267.489 2285.69 267.548 2285.81 267.664C2285.93 267.78 2286 267.943 2286.01 268.117L2286.17 270.403L2285.02 270.481L2284.86 268.195Z" fill="black"/>
<path d="M2278.09 271.976C2278.08 271.812 2278.13 271.651 2278.22 271.529C2278.32 271.406 2278.45 271.332 2278.59 271.322C2278.74 271.312 2278.88 271.368 2278.99 271.477C2279.1 271.586 2279.17 271.739 2279.18 271.903L2279.31 273.663L2278.22 273.736L2278.09 271.976Z" fill="black"/>
<path d="M2292.05 271.037C2292.04 270.95 2292.04 270.86 2292.05 270.774C2292.07 270.687 2292.1 270.606 2292.15 270.535C2292.19 270.465 2292.25 270.407 2292.32 270.365C2292.39 270.323 2292.46 270.299 2292.54 270.294C2292.62 270.289 2292.7 270.302 2292.77 270.335C2292.85 270.367 2292.91 270.416 2292.97 270.48C2293.02 270.544 2293.07 270.62 2293.1 270.704C2293.12 270.787 2293.13 270.876 2293.13 270.965L2293.25 272.725L2292.18 272.797L2292.05 271.037Z" fill="black"/>
<path d="M2351.85 284.345C2351.08 276.147 2345.81 274.536 2345.77 274.512C2345.73 274.488 2340.37 276.987 2340.97 285.156L2351.85 284.345Z" fill="#FFFF00"/>
<path d="M2355.57 273.998L2357.13 283.396L2351.73 283.759C2351.11 275.882 2345.86 274.994 2345.74 275.029C2345.61 275.063 2340.63 277.101 2341.03 284.479L2335.53 284.848L2335.84 275.259L2355.5 273.936L2355.57 273.998Z" fill="#FFFF00" stroke="black" stroke-width="0.5"/>
<path d="M2357.51 283.41L2335.28 284.905C2335.05 284.978 2334.85 285.14 2334.71 285.363C2334.58 285.586 2334.51 285.857 2334.53 286.13C2334.55 286.404 2334.65 286.664 2334.82 286.866C2334.99 287.069 2335.21 287.202 2335.45 287.243L2357.68 285.748C2357.91 285.675 2358.11 285.514 2358.25 285.291C2358.38 285.068 2358.45 284.797 2358.43 284.523C2358.41 284.249 2358.31 283.989 2358.14 283.787C2357.97 283.584 2357.75 283.451 2357.51 283.41Z" fill="#FFFF00" stroke="black" stroke-width="0.5"/>
<path d="M2349.41 283.915C2349.06 278.989 2346 277.783 2345.99 277.797C2345.03 278.457 2344.27 279.428 2343.79 280.588C2343.32 281.748 2343.17 283.047 2343.34 284.323L2349.41 283.915Z" fill="#FFFF00" stroke="black" stroke-width="0.5"/>
<path d="M2356.07 270.004L2334.77 271.437C2334.55 271.492 2334.36 271.633 2334.23 271.835C2334.1 272.037 2334.03 272.288 2334.05 272.541C2334.07 272.794 2334.17 273.034 2334.33 273.217C2334.48 273.4 2334.69 273.514 2334.92 273.539L2356.22 272.106C2356.44 272.051 2356.63 271.91 2356.76 271.708C2356.89 271.505 2356.96 271.255 2356.94 271.002C2356.92 270.748 2356.82 270.509 2356.66 270.326C2356.51 270.143 2356.3 270.029 2356.07 270.004Z" fill="#FFFF00" stroke="black" stroke-width="0.5"/>
<path d="M2355.77 272.176L2335.41 273.546C2335.19 273.6 2335 273.742 2334.87 273.944C2334.74 274.146 2334.67 274.397 2334.69 274.65C2334.71 274.903 2334.81 275.143 2334.96 275.326C2335.12 275.509 2335.33 275.623 2335.56 275.648L2355.92 274.278C2356.14 274.223 2356.33 274.082 2356.46 273.88C2356.6 273.677 2356.66 273.427 2356.64 273.174C2356.62 272.92 2356.52 272.681 2356.37 272.498C2356.21 272.315 2356 272.201 2355.77 272.176Z" fill="#FFFF00" stroke="black" stroke-width="0.5"/>
<path d="M2348.07 256.855L2346.47 256.963L2346.56 258.277L2345.4 258.355L2345.31 257.041L2343.66 257.153L2343.75 258.466L2342.59 258.544L2342.5 257.23L2340.86 257.341L2341.07 260.336C2341.08 260.441 2341.1 260.544 2341.15 260.638C2341.19 260.732 2341.25 260.816 2341.32 260.884C2341.39 260.952 2341.48 261.003 2341.57 261.034C2341.66 261.064 2341.75 261.074 2341.84 261.063L2347.63 260.674C2347.82 260.665 2347.99 260.572 2348.12 260.416C2348.25 260.26 2348.32 260.052 2348.32 259.835L2348.11 256.879L2348.07 256.855Z" fill="#FFFF00" stroke="black" stroke-width="0.5"/>
<path d="M2342.31 261.269L2342.68 270.905L2348.32 270.526L2347.27 260.948L2342.37 261.278" fill="#FFFF00"/>
<path d="M2342.31 261.269L2342.68 270.905L2348.32 270.526L2347.27 260.948L2342.37 261.278" stroke="black" stroke-width="0.5"/>
<path d="M2349.51 265.259L2349.7 270.446L2355.1 270.082L2354.59 264.917L2349.51 265.259Z" fill="#FFFF00" stroke="black" stroke-width="0.5"/>
<path d="M2335.59 266.195L2335.74 271.372L2341.15 271.008L2340.64 265.842L2335.59 266.195Z" fill="#FFFF00" stroke="black" stroke-width="0.5"/>
<path d="M2355.33 261.093L2353.75 261.199L2353.85 262.512L2352.69 262.59L2352.6 261.276L2350.99 261.385L2351.08 262.698L2349.92 262.776L2349.83 261.462L2348.22 261.571L2348.44 264.566C2348.44 264.67 2348.47 264.773 2348.51 264.867C2348.55 264.961 2348.61 265.045 2348.68 265.114C2348.75 265.182 2348.83 265.233 2348.92 265.264C2349.01 265.295 2349.1 265.305 2349.2 265.293L2354.85 264.913C2355.04 264.901 2355.21 264.809 2355.34 264.656C2355.46 264.502 2355.53 264.3 2355.53 264.089L2355.32 261.12L2355.33 261.093Z" fill="#FFFF00" stroke="black" stroke-width="0.5"/>
<path d="M2341.41 262.029L2339.84 262.135L2339.93 263.448L2338.77 263.526L2338.68 262.212L2337.06 262.321L2337.15 263.635L2336 263.713L2335.9 262.399L2334.29 262.508L2334.5 265.503C2334.51 265.607 2334.53 265.709 2334.57 265.802C2334.62 265.896 2334.67 265.979 2334.75 266.047C2334.82 266.114 2334.9 266.166 2334.99 266.197C2335.07 266.229 2335.17 266.24 2335.26 266.231L2340.91 265.85C2341.1 265.838 2341.28 265.747 2341.4 265.594C2341.53 265.441 2341.6 265.238 2341.6 265.025L2341.39 262.057L2341.41 262.029Z" fill="#FFFF00" stroke="black" stroke-width="0.5"/>
<path d="M2345.52 264.115C2345.51 263.94 2345.44 263.777 2345.32 263.662C2345.2 263.546 2345.05 263.486 2344.9 263.497C2344.74 263.507 2344.6 263.586 2344.5 263.717C2344.4 263.847 2344.35 264.018 2344.37 264.192L2344.53 266.478L2345.68 266.4L2345.52 264.115Z" fill="black"/>
<path d="M2352.74 266.955C2352.75 266.867 2352.74 266.777 2352.71 266.694C2352.68 266.61 2352.64 266.534 2352.58 266.47C2352.53 266.406 2352.46 266.357 2352.38 266.325C2352.31 266.293 2352.23 266.279 2352.15 266.284C2352.08 266.289 2352 266.314 2351.93 266.355C2351.86 266.397 2351.8 266.455 2351.76 266.525C2351.71 266.596 2351.68 266.677 2351.66 266.764C2351.65 266.851 2351.65 266.94 2351.67 267.027L2351.79 268.788L2352.87 268.715L2352.74 266.955Z" fill="black"/>
<path d="M2338.79 267.893C2338.78 267.729 2338.71 267.576 2338.6 267.467C2338.49 267.358 2338.35 267.303 2338.21 267.312C2338.06 267.322 2337.93 267.396 2337.83 267.519C2337.74 267.642 2337.69 267.803 2337.71 267.966L2337.83 269.726L2338.92 269.653L2338.79 267.893Z" fill="black"/>
<path d="M2356.74 353.322C2355.97 345.111 2350.7 343.512 2350.66 343.475C2350.63 343.438 2345.26 345.95 2345.86 354.119L2356.75 353.387" fill="#FFFF00"/>
<path d="M2360.46 342.988L2362.02 352.373L2356.62 352.736C2356 344.858 2350.76 343.971 2350.63 344.006C2350.51 344.04 2345.53 346.091 2345.92 353.456L2340.43 353.825L2340.73 344.236L2360.4 342.913L2360.46 342.988Z" fill="#FFFF00" stroke="black" stroke-width="0.5"/>
<path d="M2362.41 352.387L2340.18 353.882C2339.94 353.948 2339.73 354.107 2339.59 354.329C2339.45 354.552 2339.39 354.825 2339.41 355.102C2339.43 355.378 2339.53 355.64 2339.7 355.842C2339.87 356.044 2340.1 356.173 2340.34 356.207L2362.57 354.712C2362.81 354.645 2363.01 354.487 2363.15 354.264C2363.29 354.041 2363.36 353.768 2363.34 353.492C2363.32 353.216 2363.22 352.954 2363.05 352.752C2362.87 352.55 2362.65 352.421 2362.41 352.387Z" fill="#FFFF00" stroke="black" stroke-width="0.5"/>
<path d="M2354.31 352.879C2353.96 347.953 2350.9 346.759 2350.88 346.76C2349.92 347.421 2349.16 348.391 2348.69 349.551C2348.22 350.712 2348.06 352.011 2348.23 353.287L2354.31 352.879Z" fill="#FFFF00" stroke="black" stroke-width="0.5"/>
<path d="M2360.97 338.994L2339.66 340.427C2339.44 340.482 2339.25 340.623 2339.12 340.825C2338.99 341.028 2338.93 341.278 2338.95 341.531C2338.96 341.785 2339.06 342.024 2339.22 342.207C2339.38 342.39 2339.59 342.504 2339.81 342.529L2361.12 341.096C2361.33 341.042 2361.53 340.9 2361.66 340.698C2361.79 340.496 2361.85 340.245 2361.83 339.992C2361.81 339.739 2361.72 339.499 2361.56 339.316C2361.4 339.133 2361.19 339.019 2360.97 338.994Z" fill="#FFFF00" stroke="black" stroke-width="0.5"/>
<path d="M2360.67 341.14L2340.3 342.51C2340.08 342.564 2339.89 342.705 2339.76 342.908C2339.63 343.11 2339.57 343.36 2339.58 343.614C2339.6 343.867 2339.7 344.107 2339.86 344.289C2340.01 344.472 2340.22 344.586 2340.45 344.611L2360.82 343.241C2361.03 343.187 2361.22 343.046 2361.36 342.843C2361.49 342.641 2361.55 342.391 2361.53 342.137C2361.51 341.884 2361.42 341.644 2361.26 341.461C2361.1 341.279 2360.89 341.164 2360.67 341.14Z" fill="#FFFF00" stroke="black" stroke-width="0.5"/>
<path d="M2352.97 325.819L2351.36 325.927L2351.45 327.241L2350.3 327.319L2350.2 326.005L2348.55 326.116L2348.64 327.43L2347.49 327.508L2347.39 326.194L2345.75 326.305L2345.96 329.3C2345.97 329.405 2346 329.508 2346.04 329.602C2346.08 329.696 2346.14 329.78 2346.21 329.848C2346.29 329.916 2346.37 329.967 2346.46 329.997C2346.55 330.028 2346.64 330.038 2346.73 330.026L2352.52 329.637C2352.71 329.628 2352.89 329.536 2353.02 329.38C2353.15 329.224 2353.22 329.016 2353.21 328.799L2353 325.843L2352.97 325.819Z" fill="#FFFF00" stroke="black" stroke-width="0.5"/>
<path d="M2347.2 330.233L2347.51 339.86L2353.16 339.48L2352.11 329.903L2347.2 330.233Z" fill="#FFFF00" stroke="black" stroke-width="0.5"/>
<path d="M2354.4 334.222L2354.59 339.41L2359.99 339.046L2359.48 333.881L2354.4 334.222Z" fill="#FFFF00" stroke="black" stroke-width="0.5"/>
<path d="M2340.49 335.158L2340.68 340.346L2346.09 339.982L2345.57 334.816L2340.49 335.158Z" fill="#FFFF00" stroke="black" stroke-width="0.5"/>
<path d="M2360.22 330.056L2358.64 330.162L2358.74 331.476L2357.58 331.554L2357.49 330.24L2355.88 330.348L2355.97 331.662L2354.82 331.74L2354.72 330.426L2353.12 330.534L2353.33 333.542C2353.34 333.646 2353.36 333.747 2353.4 333.84C2353.45 333.932 2353.51 334.015 2353.58 334.081C2353.65 334.148 2353.73 334.198 2353.82 334.228C2353.91 334.259 2354 334.268 2354.09 334.257L2359.74 333.876C2359.93 333.867 2360.11 333.776 2360.23 333.623C2360.36 333.469 2360.42 333.264 2360.42 333.052L2360.21 330.084L2360.22 330.056Z" fill="#FFFF00" stroke="black" stroke-width="0.5"/>
<path d="M2346.3 330.993L2344.73 331.098L2344.82 332.412L2343.67 332.49L2343.57 331.176L2341.95 331.285L2342.05 332.599L2340.89 332.677L2340.8 331.363L2339.18 331.472L2339.39 334.48C2339.4 334.583 2339.43 334.683 2339.47 334.775C2339.51 334.867 2339.57 334.948 2339.64 335.015C2339.71 335.081 2339.79 335.131 2339.88 335.162C2339.97 335.193 2340.06 335.204 2340.15 335.194L2345.81 334.814C2345.99 334.805 2346.17 334.715 2346.3 334.561C2346.43 334.407 2346.5 334.203 2346.49 333.989L2346.28 331.021L2346.3 330.993Z" fill="#FFFF00" stroke="black" stroke-width="0.5"/>
<path d="M2350.41 333.065C2350.4 332.891 2350.33 332.728 2350.21 332.612C2350.09 332.496 2349.94 332.437 2349.79 332.447C2349.63 332.458 2349.49 332.537 2349.39 332.667C2349.29 332.798 2349.24 332.969 2349.26 333.143L2349.42 335.429L2350.58 335.351L2350.41 333.065Z" fill="black"/>
<path d="M2357.63 335.892C2357.64 335.804 2357.63 335.715 2357.6 335.631C2357.57 335.547 2357.53 335.471 2357.47 335.407C2357.42 335.344 2357.35 335.294 2357.28 335.262C2357.2 335.23 2357.12 335.216 2357.05 335.221C2356.97 335.226 2356.89 335.251 2356.82 335.292C2356.75 335.334 2356.7 335.392 2356.65 335.463C2356.6 335.533 2356.57 335.615 2356.55 335.701C2356.54 335.788 2356.54 335.878 2356.56 335.965L2356.68 337.725L2357.76 337.652L2357.63 335.892Z" fill="black"/>
<path d="M2343.68 336.831C2343.67 336.667 2343.6 336.514 2343.49 336.405C2343.38 336.296 2343.24 336.24 2343.1 336.25C2342.95 336.26 2342.82 336.334 2342.72 336.457C2342.63 336.579 2342.59 336.74 2342.6 336.904L2342.72 338.664L2343.81 338.591L2343.68 336.831Z" fill="black"/>
<path d="M2338.15 426.69C2342.75 420.428 2339.95 415.073 2339.93 415.021C2339.92 414.969 2334.51 412.39 2329.83 418.499L2338.15 426.69Z" fill="#FFFF00"/>
<path d="M2347.29 422.564L2342.55 430.3L2338.4 426.184C2342.85 420.315 2339.67 415.434 2339.56 415.363C2339.45 415.291 2334.58 412.675 2330.25 418.074L2326.1 413.945L2332.32 407.588L2347.33 422.562L2347.29 422.564Z" fill="#FFFF00" stroke="black" stroke-width="0.5"/>
<path d="M2342.81 430.6L2325.87 413.749C2325.66 413.608 2325.42 413.554 2325.18 413.596C2324.94 413.638 2324.72 413.774 2324.56 413.98C2324.41 414.186 2324.32 414.449 2324.32 414.724C2324.31 415 2324.39 415.27 2324.55 415.488L2341.46 432.34C2341.67 432.505 2341.92 432.574 2342.17 432.533C2342.42 432.492 2342.64 432.343 2342.79 432.119C2342.96 431.921 2343.06 431.653 2343.06 431.37C2343.07 431.088 2342.97 430.812 2342.81 430.6Z" fill="#FFFF00" stroke="black" stroke-width="0.5"/>
<path d="M2336.67 424.413C2339.49 420.713 2338.05 417.444 2338.04 417.432C2336.93 417.113 2335.77 417.168 2334.71 417.589C2333.64 418.011 2332.72 418.78 2332.05 419.801L2336.67 424.413Z" fill="#FFFF00" stroke="black" stroke-width="0.5"/>
<path d="M2350.16 420.22L2333.9 404.076C2333.81 403.995 2333.71 403.935 2333.6 403.9C2333.49 403.864 2333.37 403.854 2333.26 403.869C2333.15 403.884 2333.04 403.924 2332.94 403.987C2332.84 404.05 2332.75 404.135 2332.68 404.237C2332.53 404.423 2332.44 404.673 2332.44 404.934C2332.45 405.195 2332.54 405.447 2332.7 405.635L2348.96 421.792C2349.14 421.956 2349.38 422.03 2349.61 422C2349.84 421.97 2350.05 421.837 2350.19 421.63C2350.35 421.441 2350.43 421.187 2350.42 420.924C2350.42 420.661 2350.32 420.408 2350.16 420.22Z" fill="#FFFF00" stroke="black" stroke-width="0.5"/>
<path d="M2348.6 421.473L2333.08 406.019C2332.9 405.879 2332.68 405.821 2332.47 405.855C2332.25 405.889 2332.06 406.012 2331.93 406.201C2331.78 406.378 2331.7 406.61 2331.7 406.854C2331.7 407.098 2331.78 407.336 2331.92 407.522L2347.44 422.976C2347.62 423.113 2347.83 423.17 2348.05 423.136C2348.26 423.102 2348.45 422.98 2348.59 422.794C2348.73 422.619 2348.82 422.386 2348.82 422.141C2348.82 421.896 2348.74 421.658 2348.6 421.473Z" fill="#FFFF00" stroke="black" stroke-width="0.5"/>
<path d="M2352.65 404.702L2351.4 403.466L2350.65 404.44L2349.77 403.55L2350.52 402.562L2349.27 401.326L2348.52 402.314L2347.62 401.424L2348.38 400.436L2347.13 399.2L2345.41 401.428C2345.35 401.505 2345.3 401.596 2345.27 401.695C2345.24 401.795 2345.23 401.901 2345.23 402.007C2345.24 402.113 2345.27 402.216 2345.31 402.311C2345.35 402.406 2345.42 402.489 2345.49 402.557L2349.89 406.947C2350.04 407.085 2350.23 407.155 2350.42 407.143C2350.61 407.13 2350.78 407.035 2350.91 406.878L2352.61 404.665L2352.65 404.702Z" fill="#FFFF00" stroke="black" stroke-width="0.5"/>
<path d="M2345.74 403.095L2339.94 409.992L2344.25 414.255L2349.53 406.799L2345.78 403.092" fill="#FFFF00"/>
<path d="M2345.74 403.095L2339.94 409.992L2344.25 414.255L2349.53 406.799L2345.78 403.092" stroke="black" stroke-width="0.5"/>
<path d="M2348.42 411.638L2345.3 415.372L2349.43 419.476L2352.29 415.496L2348.42 411.638Z" fill="#FFFF00" stroke="black" stroke-width="0.5"/>
<path d="M2337.82 401.093L2334.71 404.826L2338.84 408.931L2341.7 404.951L2337.82 401.093Z" fill="#FFFF00" stroke="black" stroke-width="0.5"/>
<path d="M2355.21 413.452L2353.96 412.216L2353.22 413.19L2352.34 412.312L2353.09 411.324L2351.84 410.088L2351.08 411.077L2350.2 410.212L2350.97 409.21L2349.72 407.974L2348 410.215C2347.93 410.292 2347.89 410.382 2347.86 410.481C2347.83 410.579 2347.82 410.683 2347.83 410.788C2347.83 410.892 2347.86 410.994 2347.9 411.087C2347.94 411.181 2348 411.264 2348.07 411.332L2352.39 415.622C2352.54 415.756 2352.72 415.824 2352.91 415.812C2353.09 415.799 2353.27 415.707 2353.39 415.554L2355.1 413.341L2355.21 413.452Z" fill="#FFFF00" stroke="black" stroke-width="0.5"/>
<path d="M2344.62 402.906L2343.37 401.671L2342.61 402.632L2341.74 401.767L2342.5 400.778L2341.25 399.543L2340.49 400.531L2339.61 399.653L2340.38 398.664L2339.13 397.429L2337.42 399.669C2337.35 399.745 2337.31 399.835 2337.28 399.933C2337.25 400.032 2337.23 400.137 2337.24 400.242C2337.25 400.346 2337.27 400.449 2337.32 400.542C2337.36 400.636 2337.42 400.719 2337.49 400.785L2341.81 405.075C2341.95 405.212 2342.14 405.282 2342.32 405.269C2342.51 405.257 2342.68 405.163 2342.8 405.008L2344.52 402.794L2344.62 402.906Z" fill="#FFFF00" stroke="black" stroke-width="0.5"/>
<path d="M2346.28 407.638C2346.34 407.577 2346.38 407.503 2346.41 407.42C2346.44 407.338 2346.45 407.249 2346.45 407.159C2346.45 407.069 2346.43 406.981 2346.39 406.899C2346.36 406.818 2346.31 406.745 2346.25 406.685C2346.19 406.626 2346.12 406.581 2346.04 406.553C2345.97 406.526 2345.89 406.517 2345.81 406.526C2345.73 406.536 2345.66 406.563 2345.59 406.608C2345.52 406.653 2345.46 406.713 2345.42 406.785L2344.1 408.485L2344.96 409.35L2346.28 407.638Z" fill="black"/>
<path d="M2349.69 415.42C2349.75 415.362 2349.79 415.291 2349.82 415.211C2349.85 415.132 2349.87 415.045 2349.86 414.958C2349.86 414.87 2349.84 414.784 2349.81 414.704C2349.78 414.625 2349.73 414.553 2349.67 414.495C2349.61 414.437 2349.54 414.394 2349.47 414.367C2349.4 414.341 2349.32 414.333 2349.24 414.343C2349.17 414.354 2349.09 414.382 2349.03 414.427C2348.96 414.472 2348.91 414.533 2348.86 414.605L2347.85 415.913L2348.68 416.742L2349.75 415.416" fill="black"/>
<path d="M2339.06 404.837C2339.12 404.779 2339.16 404.708 2339.19 404.628C2339.22 404.549 2339.24 404.462 2339.24 404.375C2339.23 404.287 2339.22 404.201 2339.18 404.121C2339.15 404.041 2339.1 403.97 2339.04 403.912C2338.98 403.854 2338.92 403.811 2338.84 403.784C2338.77 403.758 2338.69 403.75 2338.61 403.76C2338.54 403.771 2338.46 403.799 2338.4 403.844C2338.33 403.889 2338.28 403.95 2338.24 404.022L2337.23 405.343L2338.05 406.159L2339.12 404.833" fill="black"/>
<path d="M2282.23 360.762C2282.44 363.9 2283.69 366.857 2285.72 369.04C2286.68 370.087 2287.81 370.898 2289.05 371.423C2290.29 371.947 2291.6 372.173 2292.91 372.085C2294.22 371.997 2295.49 371.597 2296.65 370.912C2297.8 370.227 2298.81 369.271 2299.6 368.107C2301.31 365.674 2302.13 362.577 2301.89 359.439L2300.76 343.466L2281.1 344.789L2282.23 360.815" fill="#003399"/>
<path d="M2286.18 352.775C2287.26 352.703 2288.06 351.656 2287.97 350.438C2287.89 349.219 2286.94 348.289 2285.87 348.361C2284.8 348.434 2284 349.48 2284.09 350.699C2284.17 351.918 2285.11 352.847 2286.18 352.775Z" fill="white"/>
<path d="M2297.09 352.055C2298.17 351.983 2298.97 350.936 2298.88 349.717C2298.79 348.498 2297.85 347.569 2296.78 347.641C2295.71 347.713 2294.91 348.76 2294.99 349.979C2295.08 351.197 2296.02 352.127 2297.09 352.055Z" fill="white"/>
<path d="M2292.06 358.373C2293.13 358.3 2293.93 357.254 2293.84 356.035C2293.76 354.816 2292.82 353.887 2291.74 353.959C2290.67 354.031 2289.87 355.078 2289.96 356.296C2290.04 357.515 2290.98 358.445 2292.06 358.373Z" fill="white"/>
<path d="M2287.05 364.952C2288.12 364.88 2288.92 363.833 2288.84 362.615C2288.75 361.396 2287.81 360.466 2286.74 360.538C2285.66 360.611 2284.86 361.657 2284.95 362.876C2285.04 364.095 2285.98 365.024 2287.05 364.952Z" fill="white"/>
<path d="M2297.94 364.206C2299.02 364.134 2299.82 363.087 2299.73 361.869C2299.64 360.65 2298.7 359.72 2297.63 359.792C2296.56 359.865 2295.76 360.911 2295.84 362.13C2295.93 363.349 2296.87 364.278 2297.94 364.206Z" fill="white"/>
<path d="M2279.49 322.064C2279.69 325.206 2280.94 328.169 2282.98 330.355C2283.93 331.401 2285.07 332.213 2286.3 332.738C2287.54 333.262 2288.86 333.488 2290.17 333.4C2291.48 333.312 2292.75 332.912 2293.9 332.227C2295.05 331.541 2296.06 330.585 2296.86 329.421C2298.57 326.989 2299.39 323.891 2299.15 320.754L2298.01 304.728L2278.35 306.051L2279.49 322.077" fill="#003399"/>
<path d="M2283.44 314.037C2284.51 313.965 2285.31 312.919 2285.22 311.7C2285.14 310.481 2284.2 309.552 2283.12 309.624C2282.05 309.696 2281.25 310.742 2281.34 311.961C2281.42 313.18 2282.36 314.11 2283.44 314.037Z" fill="white"/>
<path d="M2294.34 313.317C2295.42 313.245 2296.22 312.198 2296.13 310.979C2296.04 309.761 2295.1 308.831 2294.03 308.903C2292.96 308.975 2292.16 310.022 2292.24 311.241C2292.33 312.46 2293.27 313.389 2294.34 313.317Z" fill="white"/>
<path d="M2289.31 319.635C2290.38 319.563 2291.18 318.516 2291.09 317.297C2291.01 316.078 2290.07 315.149 2288.99 315.221C2287.92 315.293 2287.12 316.34 2287.21 317.559C2287.29 318.777 2288.23 319.707 2289.31 319.635Z" fill="white"/>
<path d="M2284.3 326.228C2285.37 326.155 2286.17 325.109 2286.09 323.89C2286 322.671 2285.06 321.742 2283.99 321.814C2282.91 321.886 2282.12 322.933 2282.2 324.151C2282.29 325.37 2283.23 326.3 2284.3 326.228Z" fill="white"/>
<path d="M2295.19 325.468C2296.27 325.396 2297.07 324.35 2296.98 323.131C2296.89 321.912 2295.95 320.982 2294.88 321.055C2293.81 321.127 2293.01 322.173 2293.09 323.392C2293.18 324.611 2294.12 325.54 2295.19 325.468Z" fill="white"/>
<path d="M2254.96 362.597C2255.17 365.738 2256.42 368.696 2258.46 370.874C2259.42 371.921 2260.55 372.732 2261.79 373.257C2263.03 373.781 2264.34 374.007 2265.65 373.919C2266.96 373.831 2268.23 373.431 2269.38 372.746C2270.54 372.06 2271.54 371.105 2272.34 369.941C2274.05 367.508 2274.87 364.411 2274.63 361.273L2273.5 345.3L2253.92 346.617L2255.05 362.643" fill="#003399"/>
<path d="M2258.92 354.609C2260 354.536 2260.8 353.49 2260.71 352.271C2260.62 351.052 2259.68 350.123 2258.61 350.195C2257.54 350.267 2256.74 351.314 2256.82 352.533C2256.91 353.751 2257.85 354.681 2258.92 354.609Z" fill="white"/>
<path d="M2269.83 353.888C2270.9 353.816 2271.7 352.769 2271.62 351.551C2271.53 350.332 2270.59 349.402 2269.52 349.475C2268.45 349.547 2267.65 350.593 2267.73 351.812C2267.82 353.031 2268.76 353.96 2269.83 353.888Z" fill="white"/>
<path d="M2264.78 360.207C2265.86 360.135 2266.66 359.088 2266.57 357.869C2266.48 356.65 2265.54 355.721 2264.47 355.793C2263.4 355.865 2262.6 356.912 2262.68 358.131C2262.77 359.349 2263.71 360.279 2264.78 360.207Z" fill="white"/>
<path d="M2259.79 366.786C2260.86 366.713 2261.66 365.667 2261.57 364.448C2261.49 363.229 2260.55 362.3 2259.47 362.372C2258.4 362.444 2257.6 363.491 2257.69 364.71C2257.77 365.928 2258.71 366.858 2259.79 366.786Z" fill="white"/>
<path d="M2270.68 366.04C2271.75 365.967 2272.55 364.921 2272.47 363.702C2272.38 362.483 2271.44 361.554 2270.37 361.626C2269.3 361.698 2268.5 362.745 2268.58 363.963C2268.67 365.182 2269.61 366.112 2270.68 366.04Z" fill="white"/>
<path d="M2309.41 358.934C2309.62 362.075 2310.87 365.033 2312.92 367.211C2313.87 368.258 2315 369.069 2316.24 369.594C2317.48 370.119 2318.8 370.344 2320.1 370.256C2321.41 370.168 2322.69 369.768 2323.84 369.083C2324.99 368.398 2326 367.442 2326.8 366.278C2328.5 363.844 2329.32 360.747 2329.07 357.611L2327.94 341.638L2308.28 342.961L2309.42 358.987" fill="#003399"/>
<path d="M2313.39 350.945C2314.46 350.873 2315.26 349.827 2315.18 348.608C2315.09 347.389 2314.15 346.459 2313.08 346.532C2312 346.604 2311.2 347.65 2311.29 348.869C2311.38 350.088 2312.32 351.017 2313.39 350.945Z" fill="white"/>
<path d="M2324.3 350.225C2325.37 350.153 2326.17 349.106 2326.08 347.887C2326 346.669 2325.06 345.739 2323.98 345.811C2322.91 345.883 2322.11 346.93 2322.2 348.149C2322.28 349.368 2323.22 350.297 2324.3 350.225Z" fill="white"/>
<path d="M2319.25 356.543C2320.32 356.471 2321.12 355.425 2321.03 354.206C2320.95 352.987 2320.01 352.058 2318.93 352.13C2317.86 352.202 2317.06 353.249 2317.15 354.467C2317.23 355.686 2318.17 356.616 2319.25 356.543Z" fill="white"/>
<path d="M2314.25 363.122C2315.33 363.05 2316.13 362.004 2316.04 360.785C2315.95 359.566 2315.01 358.636 2313.94 358.709C2312.87 358.781 2312.07 359.827 2312.15 361.046C2312.24 362.265 2313.18 363.195 2314.25 363.122Z" fill="white"/>
<path d="M2325.15 362.376C2326.22 362.304 2327.02 361.258 2326.93 360.039C2326.85 358.82 2325.91 357.89 2324.83 357.963C2323.76 358.035 2322.96 359.081 2323.05 360.3C2323.13 361.519 2324.07 362.448 2325.15 362.376Z" fill="white"/>
<path d="M2284.96 399.198C2285.17 402.336 2286.41 405.294 2288.45 407.476C2289.4 408.524 2290.54 409.337 2291.77 409.863C2293.01 410.389 2294.33 410.615 2295.64 410.527C2296.95 410.439 2298.22 410.039 2299.37 409.352C2300.53 408.665 2301.53 407.708 2302.33 406.542C2304.04 404.103 2304.86 401.003 2304.62 397.862L2303.48 381.836L2283.82 383.159L2284.96 399.198Z" fill="#003399"/>
<path d="M2288.91 391.171C2289.98 391.099 2290.78 390.052 2290.7 388.834C2290.61 387.615 2289.67 386.685 2288.6 386.757C2287.52 386.83 2286.72 387.876 2286.81 389.095C2286.9 390.314 2287.84 391.243 2288.91 391.171Z" fill="white"/>
<path d="M2299.82 390.451C2300.89 390.379 2301.69 389.332 2301.6 388.113C2301.52 386.894 2300.58 385.965 2299.5 386.037C2298.43 386.109 2297.63 387.156 2297.72 388.375C2297.8 389.593 2298.74 390.523 2299.82 390.451Z" fill="white"/>
<path d="M2294.78 396.755C2295.85 396.683 2296.65 395.637 2296.57 394.418C2296.48 393.199 2295.54 392.27 2294.47 392.342C2293.39 392.414 2292.59 393.46 2292.68 394.679C2292.77 395.898 2293.71 396.828 2294.78 396.755Z" fill="white"/>
<path d="M2289.77 403.348C2290.85 403.276 2291.65 402.229 2291.56 401.011C2291.47 399.792 2290.53 398.862 2289.46 398.934C2288.39 399.007 2287.59 400.053 2287.67 401.272C2287.76 402.491 2288.7 403.42 2289.77 403.348Z" fill="white"/>
<path d="M2300.67 402.602C2301.74 402.53 2302.54 401.483 2302.45 400.265C2302.37 399.046 2301.43 398.116 2300.35 398.188C2299.28 398.261 2298.48 399.307 2298.57 400.526C2298.65 401.745 2299.59 402.674 2300.67 402.602Z" fill="white"/>
<mask id="mask1_1612_68" style="mask-type:luminance" maskUnits="userSpaceOnUse" x="1952" y="86" width="797" height="549">
<path d="M1976.79 89.1776C1960.35 88.1497 1958.81 83.0128 1953.16 89.178C1952.13 109.73 1954.19 114.354 1960.35 164.191C1966.32 195.07 1980.52 250.194 1981.98 256.453L1983.13 261.396L1983.03 261.407L2000.65 366.444L2005.7 486.984L2006.4 487.237C2006.6 489.667 2011.87 495.654 2007.27 495.654C2010.12 520.875 2025.72 519.045 2025.09 571.11C2024.83 592.927 2029.2 610.158 2074.41 601.937C2074.63 602.186 2090.24 616.305 2104.73 609.644C2149.94 616.927 2124.65 638.084 2181.28 629.682C2231.86 622.177 2221.53 642.849 2249.61 629.682C2294.37 608.698 2299.96 617.351 2318.97 609.644C2352.37 609.644 2381.4 566.357 2388.85 577.276C2408.89 584.982 2423.6 566.77 2443.83 562.376C2454.97 559.955 2459.14 575.909 2479.79 562.376C2495.33 552.197 2510.17 552.611 2523.46 546.448C2571.76 541.311 2554.8 546.448 2586.66 546.448C2602.07 546.448 2609.26 533.09 2626.22 546.448C2661.75 541.924 2651.01 561.409 2657.56 562.376C2663.58 563.264 2670.02 562.807 2677.08 567.514C2692.41 577.722 2686.33 567.514 2704.31 579.331C2709.97 583.045 2694.94 583.109 2728.46 594.744C2743.32 599.903 2730.64 603.859 2736.17 604.506C2741.7 605.154 2732.9 584.872 2742.34 583.955C2742.34 579.331 2742.92 567.563 2742.34 562.376C2741.16 551.951 2756.22 545.947 2742.34 534.118C2728.46 522.301 2766.49 532.659 2728.46 453.967C2711.1 419.129 2712.76 379.046 2694.04 352.751C2660.64 281.334 2682.16 192.039 2676.57 192.449C2670.98 192.86 2702.39 190.773 2660.13 171.384C2635.01 159.857 2601.98 153.611 2582.03 148.778C2568.33 145.457 2566.18 133.957 2518.32 139.016C2455.13 121.033 2439.2 118.464 2371.38 125.143C2314.35 120.519 2295.41 127.429 2276.33 125.143C2256.03 122.712 2245.5 121.546 2220.33 121.546C2198.23 117.436 2197.72 117.436 2171.52 117.436C2145.31 115.381 2140.69 116.922 2101.64 109.729C2055.92 107.674 2072.36 107.16 2018.92 96.3712C1996.32 92.7747 1991.69 92.2604 1976.79 89.1776Z" fill="white"/>
</mask>
<g mask="url(#mask1_1612_68)">
<g opacity="0.4">
<g opacity="0.3" filter="url(#filter0_f_1612_68)">
<path fill-rule="evenodd" clip-rule="evenodd" d="M1947.55 64.5235L1948.42 107.253C1948.42 107.253 2028.42 154.491 2064.13 183.72C2087.09 202.514 2111.28 221.615 2126.77 246.727C2143.43 273.722 2149.41 306.027 2156.78 336.781C2165.21 371.926 2166.29 408.449 2172.87 443.979C2179.73 480.956 2182.53 519.48 2197.23 554.151C2214.14 594.035 2269.01 662.838 2269.01 662.838L2294.24 640.516C2294.24 640.516 2235.91 502.935 2215.07 431.426C2199.12 376.69 2202.67 316.517 2180.27 264.031C2167.12 233.216 2144.37 207.126 2123.29 180.928C2093.05 143.356 2024.11 75.3301 2024.11 75.3301L1947.55 64.5235ZM2116.77 53.1696L2071.53 73.866C2071.53 73.866 2265.95 187.424 2332.09 274.114C2364.69 316.853 2371.06 373.94 2392.55 423.026C2405.66 452.959 2418.29 483.229 2434.31 511.752C2455.55 549.567 2506.08 620.44 2506.08 620.44L2563.07 633.461C2563.07 633.461 2580.4 596.213 2576.55 577.432C2557.75 485.745 2459.84 429.627 2408.21 351.162C2386.54 318.223 2374.44 279.101 2349.05 248.837C2284.19 171.508 2116.77 53.1696 2116.77 53.1696ZM2249.88 38.1112C2249.88 38.1112 2365.19 203.823 2428.22 282.706C2477.15 343.936 2527.42 404.48 2583.08 459.876C2609.15 485.822 2645.93 501.912 2666.6 532.199C2689.79 566.186 2707.49 648.28 2707.49 648.28L2772.74 664.255C2772.74 664.255 2755.77 591.243 2737.07 559.273C2710.8 514.362 2667.81 481.191 2632.67 442.587C2574.5 378.655 2510.05 319.975 2456.49 252.25C2408.67 191.778 2327.74 60.4489 2327.74 60.4489L2249.88 38.1112ZM2543.51 74.9754L2471.3 102.623C2471.3 102.623 2571.51 251.469 2644.42 301.083C2666.1 315.836 2696.97 313.177 2718.8 327.715C2750.71 348.962 2776.41 379.718 2795.8 412.454C2811.31 438.652 2820.21 468.745 2825.37 498.658C2829.78 524.207 2824.64 550.566 2826.24 576.442C2827.76 600.897 2834.5 649.479 2834.5 649.479L2910.63 656.445C2910.63 656.445 2899.58 530.446 2874.1 473.678C2850.87 421.926 2811.39 378.002 2771.43 337.329C2725.1 290.171 2656.86 265.777 2614.83 214.87C2581.41 174.377 2543.51 74.9754 2543.51 74.9754Z" fill="white"/>
</g>
<g opacity="0.3" filter="url(#filter1_f_1612_68)">
<path fill-rule="evenodd" clip-rule="evenodd" d="M2015.46 56.0679L2150.8 186.687L2207.09 262.919L2224.01 387.655L2240.93 462.827L2321.82 607.867L2348.57 670.917L2440.86 693.521L2443.01 613.425L2319.66 464.937L2279.69 334.548L2229.86 241.064L2141.58 129.914L2043.76 58.3811L2015.46 56.0679ZM2158.18 53.6869L2221.85 145.605L2292.6 176.15L2336.28 240.042L2382.11 273.406L2478.69 433.182L2521.14 486.197L2590.03 574.767L2604.8 630.913L2699.54 650.482L2553.44 474.281L2406.11 262.43L2333.82 168.729L2237.85 88.7365L2200.02 51.711L2158.18 53.6869ZM2377.81 61.8846L2415.33 145.743L2467.93 263.697L2659.55 445.755L2745.68 537.89L2764.75 582.542L2777.36 644.435L2840.11 653.858L2831.5 528.181C2831.5 528.181 2652.18 380.511 2640.18 373.608C2628.19 366.705 2508.53 226.06 2508.53 226.06L2465.77 95.9854L2377.81 61.8846ZM2897.32 440.882L2923.47 647.174L3019.44 628.067L2897.32 440.882Z" fill="black"/>
</g>
</g>
</g>
</g>
<path d="M0 193.334H140.593V363.446C153.983 349.052 170.051 338.584 187.458 332.041C204.864 325.498 224.949 321.572 246.372 321.572C290.559 321.572 326.711 337.275 356.17 368.68C385.627 400.085 399.017 444.576 399.017 502.153C399.017 541.409 392.323 575.431 378.932 604.22C365.541 634.317 348.136 655.253 324.033 669.647C301.271 684.042 274.491 691.893 246.372 691.893C222.272 691.893 199.508 686.658 179.424 676.191C164.694 668.339 147.288 652.637 129.881 631.699V684.042H0V193.334ZM139.254 504.77C139.254 534.867 144.61 557.111 156.661 571.506C168.711 584.592 183.441 592.443 200.847 592.443C216.915 592.443 231.644 585.9 242.355 572.815C253.068 559.729 259.763 536.175 259.763 504.77C259.763 477.291 254.406 456.353 243.695 443.268C232.983 430.182 219.593 423.64 203.525 423.64C184.779 423.64 168.711 430.182 156.661 444.576C144.61 456.353 139.254 475.981 139.254 504.77Z" fill="white"/>
<path d="M826.155 538.785H547.647C550.326 561.031 555.681 576.733 566.394 587.202C579.783 602.905 597.19 610.756 618.613 610.756C632.004 610.756 645.393 606.83 657.444 600.287C665.478 596.363 673.512 588.51 681.546 578.043L818.121 589.82C796.698 625.15 772.596 651.321 741.799 665.716C712.342 682.726 669.495 690.578 614.596 690.578C566.394 690.578 528.901 684.036 500.784 670.95C472.664 657.863 449.902 636.927 432.494 608.14C413.749 579.351 405.715 545.328 405.715 506.072C405.715 451.112 424.46 405.313 460.613 371.292C496.767 337.269 547.647 320.257 610.579 320.257C662.8 320.257 702.969 328.109 733.765 343.811C764.562 359.515 785.987 381.759 802.055 410.548C818.121 439.335 826.155 477.285 826.155 524.392V538.785ZM684.223 473.358C681.546 447.188 674.85 428.868 662.8 417.091C650.749 405.313 636.021 400.079 615.936 400.079C594.511 400.079 575.766 409.24 563.715 426.25C555.681 436.719 550.326 452.422 547.647 473.358H684.223Z" fill="white"/>
<path d="M1014.95 193.333V328.114H1091.27V427.565H1014.95V553.186C1014.95 568.888 1016.29 578.049 1018.96 583.283C1022.98 591.134 1031.01 595.059 1043.07 595.059C1053.78 595.059 1067.17 592.442 1085.91 585.899L1096.62 680.115C1061.81 687.966 1029.68 690.584 1000.22 690.584C965.404 690.584 939.964 686.658 923.896 677.499C907.828 668.338 895.777 655.253 887.743 638.241C879.709 621.231 875.692 592.442 875.692 551.878V427.565H824.812V328.114H875.692V262.687L1014.95 193.333Z" fill="white"/>
<path d="M1310.06 193.333L1285.88 328.469H1362.43L1344.98 428.181H1268.42L1245.59 554.132C1242.91 569.877 1242.91 579.06 1244.25 584.309C1246.94 592.18 1255 596.116 1265.74 596.116C1276.48 596.116 1291.26 593.492 1310.06 586.933L1303.34 680.085C1267.08 687.956 1234.85 690.581 1205.3 690.581C1170.39 690.581 1146.21 686.645 1131.44 677.46C1116.67 668.276 1107.26 655.157 1101.89 638.1C1097.86 621.044 1097.86 592.18 1105.92 551.509L1128.75 426.87H1077.72L1095.18 327.157H1146.21L1158.3 261.557L1310.06 193.333Z" fill="url(#paint0_linear_1612_68)"/>
<path d="M1405.41 328.469H1545.08L1480.62 684.02H1342.29L1405.41 328.469ZM1429.59 193.333H1569.26L1553.14 286.485H1413.47L1429.59 193.333Z" fill="url(#paint1_linear_1612_68)"/>
<path d="M1621.63 193.333H1761.31L1672.67 684.02H1532.99L1621.63 193.333Z" fill="url(#paint2_linear_1612_68)"/>
<path d="M1989.62 193.333L1965.44 328.469H2041.99L2024.53 428.181H1947.98L1925.15 554.132C1922.46 569.877 1922.46 579.06 1923.8 584.309C1926.49 592.18 1934.55 596.116 1945.3 596.116C1956.03 596.116 1970.81 593.492 1989.62 586.933L1982.9 681.396C1946.64 689.268 1914.41 691.892 1884.85 691.892C1849.94 691.892 1825.77 687.956 1811 678.772C1796.21 669.589 1786.82 656.468 1781.45 639.412C1777.41 622.356 1777.41 593.492 1785.48 552.821L1808.3 428.181H1757.27L1774.73 328.469H1825.77L1837.85 262.869L1989.62 193.333Z" fill="url(#paint3_linear_1612_68)"/>
<defs>
<filter id="filter0_f_1612_68" x="1934.72" y="25.2826" width="988.735" height="651.801" filterUnits="userSpaceOnUse" color-interpolation-filters="sRGB">
<feFlood flood-opacity="0" result="BackgroundImageFix"/>
<feBlend mode="normal" in="SourceGraphic" in2="BackgroundImageFix" result="shape"/>
<feGaussianBlur stdDeviation="6.41435" result="effect1_foregroundBlur_1612_68"/>
</filter>
<filter id="filter1_f_1612_68" x="2005.65" y="41.8998" width="1023.6" height="661.433" filterUnits="userSpaceOnUse" color-interpolation-filters="sRGB">
<feFlood flood-opacity="0" result="BackgroundImageFix"/>
<feBlend mode="normal" in="SourceGraphic" in2="BackgroundImageFix" result="shape"/>
<feGaussianBlur stdDeviation="4.90558" result="effect1_foregroundBlur_1612_68"/>
</filter>
<linearGradient id="paint0_linear_1612_68" x1="1077.72" y1="442.613" x2="2041.99" y2="442.613" gradientUnits="userSpaceOnUse">
<stop stop-color="#FFC700"/>
<stop offset="1" stop-color="#FFEA21"/>
</linearGradient>
<linearGradient id="paint1_linear_1612_68" x1="1077.72" y1="442.613" x2="2041.99" y2="442.613" gradientUnits="userSpaceOnUse">
<stop stop-color="#FFC700"/>
<stop offset="1" stop-color="#FFEA21"/>
</linearGradient>
<linearGradient id="paint2_linear_1612_68" x1="1077.72" y1="442.613" x2="2041.99" y2="442.613" gradientUnits="userSpaceOnUse">
<stop stop-color="#FFC700"/>
<stop offset="1" stop-color="#FFEA21"/>
</linearGradient>
<linearGradient id="paint3_linear_1612_68" x1="1077.71" y1="442.613" x2="2041.99" y2="442.613" gradientUnits="userSpaceOnUse">
<stop stop-color="#FFC700"/>
<stop offset="1" stop-color="#FFEA21"/>
</linearGradient>
</defs>
</svg>
